<?xml version="1.0" encoding="UTF-8"?>
<svg id="Camada_1" data-name="Camada 1" xmlns="http://www.w3.org/2000/svg" viewBox="0 0 797.58 250">
  <defs>
    <style>
      .cls-1 {
        fill: #2faf93;
      }

      .cls-2 {
        fill: #1e2328;
      }
    </style>
  </defs>
  <path class="cls-1" d="M434.74,85.74c-4.85.61-8.52-2.47-9.87-7.96-2.86-11.76-11.36-22.78-23.94-23.81-14.54-1.19-25.58,10.47-28.39,24.04-1.05,5.08-4.31,7.94-8.79,7.84-15.06-.28-6.28-30.15,12.92-42.87-17.98-12.37-27.84-40.84-14.31-42.83,11.91-1.73,7.53,11.36,18.72,23.7,9.18,10.13,23.68,11.08,33.92,1.6,12.69-11.76,7.73-24.83,18.46-25.37,15.47-.78,7.27,29.99-12.86,42.81,18.68,12.47,28.32,41.03,14.14,42.84Z"/>
  <g>
    <path class="cls-2" d="M509.4,157.18c-10.05-3.74-20.78-2.52-30.11,3.91-7.28,5.03-14.18,14.66-14.22,25.34l-.24,56.8c-.01,3.9,2.74,6.32,5.8,6.72,3.55.47,6.65-2.38,6.69-6.69l.24-27.34c16.41,12.42,37.35,8.07,48.37-8.28l5.11-10.47c1.8-17.73-5.39-33.52-21.64-39.99ZM517.98,187.38c.81,10.91-6.64,21.81-19.24,22.31-12.81.48-20.87-10-20.82-20.97.06-10.44,8.35-20.24,20.07-20.21,11.25.01,19.24,8.99,20,18.88Z"/>
    <path class="cls-2" d="M452.72,155.86c-2.42-1.21-5.77-1.06-7.93,1.52l-18.28,21.94-18.54-21.92c-2.47-2.92-6.61-2.71-8.89-1.01-2.98,2.23-3.28,6.28-.84,9.23l19.64,23.7-20.17,24.59c-2.1,2.57-1.02,6.69,1.36,8.3,1.74,1.18,6.08,2.18,8.18-.3l19.1-22.63,18.39,21.97c2.38,2.85,6.65,2.64,8.81.89,2.79-2.24,3.36-6.24.58-9.57l-19.27-23.12,20.63-25.78c2.1-2.61-.78-6.81-2.79-7.8Z"/>
    <path class="cls-2" d="M379.15,163.98c-8.21-7.69-19.43-10.88-30.65-7.73-14.75,4.14-24.36,17.84-24.59,32.39-.24,14.37,8.41,28.25,22.52,32.99,15.06,5.08,32.35-2.04,27.38-8.01-3.25-3.87-14.17,8.61-29.88-1.01-5.5-3.36-11.06-9.53-12.15-17.61l57.75-.43c2.24-11.98-2.54-23.26-10.38-30.59ZM330.89,187.92c.89-14.1,11.83-24.99,24.63-25.57,14-.62,25.99,9.44,27.71,25.3l-52.34.27Z"/>
    <path class="cls-2" d="M187.7,155.69c-15.6,3.25-25.91,16.85-26.65,31.79-.74,14.75,7.7,29.11,22.34,34.12,20.01,6.85,40.45-6.34,43.34-27.72,1.59-11.7-2.67-22.08-9.84-29.2-7.52-7.45-18.22-11.26-29.19-8.99ZM192.4,216.18c-15.32-.91-24.73-14.29-24.45-27.51.31-13.57,10.54-25.72,25.17-26.28,15.26-.57,26.68,12.18,27,26.24.34,14.66-11.05,28.53-27.72,27.55Z"/>
    <path class="cls-2" d="M63.96,157.28c-13.51-3.9-27.09.3-36.43,10.83l-.48-9.84c-.11-2.25-2.06-3.22-3.4-3.28-1.22-.07-3.53,1.11-3.53,3.22l-.11,60.89c0,2.77,1.56,4.31,3.64,4.31s3.57-1.59,3.57-4.31l.11-31.28c.04-14.31,12.71-24.48,26.11-24.83,13.39-.35,27.11,9.27,27.26,23.53l.31,32.57c.03,2.77,1.53,4.24,3.63,4.28,1.87.04,3.86-1.53,3.81-4.27l-.47-33.96c-.2-13.94-12.12-24.42-24.02-27.87Z"/>
    <path class="cls-2" d="M313.65,208.53c-4-2.64-15.12,14.21-33.47,5.28-8.71-4.24-15.6-13.27-15.26-25.24.33-11.4,7.08-19.92,15.33-23.75,9.57-4.44,20.41-2.99,28.11,4.2,2.07,1.93,4.58,2.16,6.04.4,4.59-5.56-16.89-20.93-37.49-10.95-10.65,5.18-18.48,16-18.96,29.43-.51,14.08,7.13,26.66,18.89,32.21,21.78,10.28,44.2-6.67,36.81-11.56Z"/>
    <path class="cls-2" d="M153.99,155.3c-1.53-.58-3.46.09-4.41,1.86l-26.08,54.64-27.3-55.83c-.62-1.26-3.6-1.09-4.35-.51-.75.57-2.11,2.52-1.32,4.18l29.03,60.58c.88,1.82,1.89,2.91,3.4,3.08,1.42.16,3.02-.72,3.86-2.48l28.9-60.38c1.18-2.45.13-4.41-1.73-5.13Z"/>
    <path class="cls-2" d="M243.46,154.99c-1.33.01-3.13,1.13-3.12,3.33l.18,63.09c.01,1.79,3.19,2.25,4.18,1.7,1.39-.78,2.4-1.62,2.38-4.79l-.14-60.13c0-2.04-2.23-3.23-3.49-3.2Z"/>
    <path class="cls-2" d="M3.77,155.11C1.63,155.11,0,156.79,0,159.49l.14,60.94c.01,2.47,3.28,3.62,4.92,2.78,1.08-.54,2.1-2.07,2.08-4.93l-.08-58.7c-.01-2.77-1.26-4.45-3.29-4.47Z"/>
    <path class="cls-2" d="M241.45,143.38c1.83,1.19,3.45.54,4.37-.17,1.55-1.21,1.45-3.28.78-4.2-1.08-1.45-3.59-1.87-5.05-.68-2.3,1.87-1.29,4.27-.1,5.05Z"/>
    <path class="cls-2" d="M2.44,143.85c1.32.45,3.52-.1,4.04-1.39.71-1.7.2-2.98-.58-3.83-1.21-1.3-4.37-1.55-5.45.58-1.36,2.74.67,4.18,1.99,4.64Z"/>
    <path class="cls-2" d="M632.07,155.18c-17.74-1.21-33.4,12.73-34.86,31.28-.99,12.64,4.75,24.32,14.05,30.93,10.25,7.29,23.43,7.97,34.53,2.11,4.03-2.13,5.29-6.37,2.94-9.98-4.98-7.64-12.18,4.44-24.87-.13-3.19-1.15-4.92-2.28-7.16-4.52-2.01-2.03-4.57-3.59-5.15-7.36h45.07c4.11.03,6.18-2.79,6.41-6.79,1.04-18.59-12.86-34.32-30.96-35.54ZM610.2,184.43c2.38-9.88,10.41-16.05,19.02-16.27,8.88-.21,17.51,4.65,20.83,15.95l-39.85.31Z"/>
    <path class="cls-2" d="M702.91,167.97c15.23-.62,16.82,16.71,25.99,10.74,2.17-1.4,3.59-5.7,1.47-9.08-5.97-9.57-16.52-15.17-27.44-14.96-10.58.21-21.4,5.73-26.77,15.57-2.43,4.42-2.65,9.32-.6,13.6,1.69,3.55,5.42,6.68,10.18,7.76l27.77,6.37c1.45.33,4.4,2.57,3.63,3.79-3.94,6.23-10.32,8.37-16.92,7.83-12.79-1.05-14.27-16-23.19-10.79-2.6,1.52-4.07,5.71-1.56,9.46,6.78,10.1,17.41,15.07,28.46,14.45,10.34-.6,20.68-5.87,25.72-15.78,2.26-4.44,2.17-9.23.31-13.29-1.73-3.8-5.4-6.54-10.24-7.71l-32.56-7.9c2.99-6.67,9.37-9.77,15.73-10.04Z"/>
    <path class="cls-2" d="M796.3,194.05c-1.55-3.38-5.19-6.82-10.18-8.01l-32.9-7.88c2.85-7.18,9.4-10.11,16.25-10.21,14.49-.21,16.39,16.27,25.04,10.93,3.16-1.96,4.14-6.27,1.66-9.84-6.48-9.35-16.86-14.93-27.99-14.37-10,.51-20.45,5.71-25.8,15.12-2.57,4.54-2.79,9.56-.52,14.31,1.42,2.99,4.85,6.23,9.42,7.3l28.72,6.79c1.55.37,2.94,2.42,3.64,3.72-4.4,5.42-10.38,8.23-16.8,7.8-12.99-.85-16.29-17.4-24.36-10.59-2.43,2.06-3.01,6.15-.72,9.53,6.48,9.52,16.28,14.08,26.42,14.1,10.28.01,20.22-4.47,26.26-13.53,3.06-4.59,4.3-9.84,1.87-15.16Z"/>
    <path class="cls-2" d="M591.23,158.33c-10.91-5.53-23.4-3.97-33.75,3.67-1.52-4.67-4.42-7.15-7.64-6.69-4.27.6-5.76,4.16-5.7,8.42l.78,57.55c3.18,2.27,9.02,3.01,11.1.78l.89-32.02c.24-8.62,4.03-14.88,9.3-18.51,12.93-8.93,24.83,4.21,27.98-4.61,1.19-3.33.33-6.92-2.96-8.59Z"/>
  </g>
</svg>