<?xml version="1.0" encoding="UTF-8"?>
<svg id="Camada_1" data-name="Camada 1" xmlns="http://www.w3.org/2000/svg" viewBox="0 0 637.7 350">
  <defs>
    <style>
      .cls-1 {
        fill: #22ca97;
      }

      .cls-2 {
        fill: #2795f3;
      }

      .cls-3 {
        fill: #2a3141;
      }

      .cls-4 {
        fill: #4da8f5;
      }

      .cls-5 {
        fill: #0182f1;
      }
    </style>
  </defs>
  <path class="cls-3" d="M146.87,328.79l.05-31.46c-.28-7.28-1.96-15.73-7.67-20.04-5.71-4.3-13.57-4.28-19.24.02-5.39,4.09-7.14,11.93-7.57,18.84l-.02,53.83h-39.06l.08-53.82c-.44-6.87-2.26-14.85-7.61-18.86-5.66-4.25-13.55-4.27-19.22,0-6.12,4.6-7.63,13.88-7.64,21.66l-.06,51.03L0,349.95l.04-61.75c1.07-5.6,1.91-11.19,4.89-16.28,6.12-10.44,16-17.41,27.64-20.68,15.18-4.26,31.05-4.38,46.23-.12,4.97,1.4,9.39,3.15,13.81,5.96,4.12-2.56,8.31-4.35,13.06-5.73,15.58-4.52,31.97-4.46,47.59-.11,10.36,2.89,19.14,8.59,25.46,17.31,4.79,6.6,6.92,14.33,6.93,22.59l.06,58.85h-38.93s.09-21.19.09-21.19Z"/>
  <path class="cls-4" d="M398.87,131.91c-9.55,15.12-20.04,29.27-31.66,42.81l-8.48,8.74c-3.31,3.41-12.24,4.22-17.78,4.45l-17.23.71c-4.36.18-8.62,1.13-12.59,3.26-7.21,3.88-8.46,11.37-7.5,19.61-10.33-1.56-20.05-3.93-29.52-7.63l-11.06-5.32c-3.65-1.76-6.58-4.49-9.25-7.47-13.72-15.31,2.31-34.38,15.32-45.83,9.12-8.03,18.78-14.99,29.09-21.55,18.98-12.07,38.53-22.75,58.85-32.38,13.38-6.35,39.93-17.78,52.93-13.83,18.25,5.54-3.53,42.42-11.12,54.44Z"/>
  <path class="cls-3" d="M553.39,307.71c.17-5.94.14-11.43-.55-17.24-.95-4.24-2.15-8.36-5.38-11.69-5.53-5.7-14.51-6.15-20.72-1.52-5.72,4.28-7.28,12.17-7.78,19.33v53.39s-38.83,0-38.83,0l.06-60.19c.36-6.64,1.44-12.72,4.89-18.3,5.97-9.64,15.21-16.58,26.06-19.77,16.25-4.77,34.24-4.91,50.4.07,10.53,3.25,19.57,9.81,25.39,19.23,3.9,6.32,5.18,13.26,5.42,20.74l.02,58.21h-39l.02-42.27Z"/>
  <path class="cls-3" d="M473.19,291.16c-.85-6.62-2.27-12.98-5.61-18.82-6.02-10.55-16-17.74-27.68-20.97-17.28-4.79-35.39-4.5-52.29,1.71-9.24,3.4-16.85,9.91-22.01,18.17-8.77,14.03-8.84,40.88-.21,55.1,5.76,9.49,14.74,16.34,25.38,19.68,17.79,5.6,36.81,5.38,54.48-1.25,6.87-2.58,12.25-6.75,17.05-11.88,4.94-5.28,8.01-11.63,9.62-18.7,1.75-7.66,2.26-15.25,1.26-23.04ZM433.73,309.15c-.85,4.59-2.58,8.99-6.17,12.41-6.27,5.96-16.47,5.77-22.61-.06-7.9-7.48-8.1-23.82-5.48-34.28.98-3.95,2.94-7.67,6.06-10.31,6.3-5.32,15.93-5.18,21.97.43,7.53,6.98,8.08,21.85,6.22,31.82Z"/>
  <path class="cls-3" d="M304.54,281.53c-3.97-14.74-15.91-25.57-30.42-29.86-16.36-4.85-33.32-4.82-49.67.1-13.32,4.01-25.25,14.31-29.36,27.68-3.87,12.6-3.93,25.98-.14,38.61,4.03,13.39,15.62,23.67,28.81,27.89,16.9,5.4,34.77,5.42,51.87-.11,13.88-4.49,25.19-15.5,28.96-29.51,3.08-11.44,3.03-23.37-.05-34.8ZM259.12,322.9c-6.4,4.5-15.07,3.94-20.71-1.18-7.87-7.16-8.28-22.76-6.12-33.01,1.08-5.1,3.48-9.97,7.81-12.84,5.96-3.94,13.71-3.81,19.36.45,3.4,2.54,5.6,6.29,6.71,10.45,2.97,11.11,2.7,29.26-7.06,36.13Z"/>
  <path class="cls-5" d="M300.35,55.12c-14.93,17.79-28.68,36.04-41.2,55.39-5.93,9.16-11.18,18.29-15.83,28.09-5.01,10.55-8.96,21.7-9.45,33.17-1.87-6.27-2.66-12.21-3.21-18.6-1.34-15.55-.78-30.86.53-46.52,1.57-18.84,3.94-37.15,7.41-55.65,2.68-14.28,8.04-37.99,17.67-47.76,3.59-3.65,8.69-4.31,13.04-1.58,2.74,1.72,5.02,3.88,7.15,6.38,3.8,4.47,6.7,9.21,9.56,14.42,5.73,10.46,10.23,21.44,14.33,32.64Z"/>
  <path class="cls-2" d="M363.89,62.62l-2.08,18.79c-22.68,10.42-44.63,22.25-65.79,35.68-14.65,9.29-29.81,20.5-41.21,33.4-2.9,3.57-5.57,6.97-7.76,11.2-3.23,5.68-4.6,11.55-4.71,18.02-1.73-6.6-.86-13.37.82-20.1,4.5-16.42,14.31-33.75,23.73-48.11,13.07-19.9,27.31-38.74,42.84-56.75,8.06-9.34,18.59-20.18,28.67-26.81,3.2-2.1,6.5-3.68,10.2-4.59,4.74-1.17,9.19.92,11.47,5.22,2.38,4.51,3.29,9.38,3.79,14.53.65,6.55.75,12.97.02,19.52Z"/>
  <path class="cls-3" d="M352.53,349.91l-20.3-.05c-10.46-.03-18.62-8.63-18.83-19.11v-119.26l20.78.11c10.47.54,18.32,9.12,18.35,19.55v118.75Z"/>
  <path class="cls-1" d="M225.79,92.35c-1.99,17.99-3.06,35.64-2.35,53.66l1.26,15.91c-5.47-8.55-9.84-16.9-14.18-25.75-9.11-18.57-17.03-37.4-23.96-56.91-5.01-14.09-12.89-39.07-8.55-52.16,3.03-9.13,13.05-7.48,21.44-4.2,12.22,5.12,23.1,12.95,33.7,21.11-3.38,16.19-5.56,32.03-7.36,48.35Z"/>
  <path class="cls-3" d="M637.7,265.38l-.02,84.57-19.95-.05c-9.86-.4-17.8-7.65-18.89-17.54v-84.39l20.28.11c9.81.43,17.66,7.84,18.58,17.29Z"/>
  <path class="cls-1" d="M637.69,224.76c-1.54,8.88-8.69,16.15-18.11,16.7l-20.77.16.12-16.51c.06-7.32,6.4-12.85,13.61-13.53l25.12-.07.02,13.25Z"/>
</svg>