<?xml version="1.0" encoding="UTF-8"?>
<svg id="Camada_1" data-name="Camada 1" xmlns="http://www.w3.org/2000/svg" viewBox="0 0 121 121.62">
  <defs>
    <style>
      .cls-1 {
        fill: #32b294;
      }
    </style>
  </defs>
  <path class="cls-1" d="M110.03,121.62c-6.18.12-11.12-4.13-12.26-10.42-1.75-9.6-6.49-16.72-12.69-23.59-12-13.3-31.25-15.51-45.43-3.83-21.13,17.39-11.56,38.01-28.94,37.68-21.83-.4-7.19-44.46,18.62-60.82C5.1,45.78-11.27,2.8,9.47.19c18.67-2.34,9.71,22.07,30.81,37.89,10.86,8.16,23.61,9.67,35.66,3.2,11.54-6.19,18.85-18.16,21.86-30.95,1.72-7.29,7.16-11.15,13.6-10.18,21.16,3.21,4.08,45.69-19.7,60.63,25.71,15.82,40.48,60.42,18.32,60.84Z"/>
</svg>