<?xml version="1.0" encoding="UTF-8"?>
<svg id="Camada_1" data-name="Camada 1" xmlns="http://www.w3.org/2000/svg" viewBox="0 0 1920 1080">
  <defs>
    <style>
      .cls-1 {
        fill: #161616;
      }
    </style>
  </defs>
  <path class="cls-1" d="M453.04,732.49l-66.75-136.92c14.6-8.02,26.64-18.73,35.88-31.92,17.52-25.02,26.41-55.42,26.41-90.36,0-23.21-3.82-44.64-11.36-63.69-7.74-19.54-19.96-35.98-36.33-48.88-16.31-12.85-37.3-21.35-62.38-25.25-5.5-.98-11.75-1.62-18.58-1.91-6.58-.28-11.92-.42-15.87-.42H127.83v413.73h94.37v-120.62l-40.44-12.81h107.16l61.93,127.79,2.73,5.64h106.48l-7.01-14.38ZM350.85,493.3c-1.73,6.54-4.78,12.33-9.31,17.7-4.17,4.93-10.14,8.4-18.24,10.61l-.05.02h-.06c-3.18.92-6.76,1.54-10.63,1.85-4.25.34-8.21.51-11.78.51h-78.59v-101.4h78.59c3.53,0,7.49.18,11.78.52,3.88.31,7.46.93,10.63,1.83l.06.02.05.02c7.99,2.17,14.12,5.74,18.24,10.61,4.54,5.37,7.58,11.16,9.32,17.7,1.86,7.06,2.81,13.8,2.81,20s-.95,12.94-2.82,20.01Z"/>
  <polygon class="cls-1" points="594.04 363.04 594.04 746.87 499.67 746.87 499.67 333.14 594.04 363.04"/>
  <path class="cls-1" d="M1011.73,428.08c-16.2-32.39-39.65-57.96-69.69-76.01-29.98-18-65.98-27.13-107-27.13s-77.02,9.13-107,27.13c-30.05,18.05-53.49,43.62-69.69,76.01-16.03,32.06-24.16,69.72-24.16,111.93s8.13,79.87,24.16,111.93c16.19,32.39,39.64,57.96,69.69,76.01,29.97,18,65.97,27.12,107,27.12s77.03-9.12,107-27.13c30.04-18.04,53.49-43.61,69.69-76.01,16.03-32.06,24.16-69.72,24.16-111.92s-8.13-79.86-24.16-111.93ZM925.45,607.88c-7.5,18.44-18.81,32.83-33.63,42.76-14.31,9.59-32.61,14.46-54.39,14.46-.74,0-1.48-.01-2.23-.02-22.9-.33-42.05-5.56-56.92-15.53-14.85-9.95-26.17-24.17-33.65-42.27-7.75-18.74-11.68-41.37-11.68-67.27s3.93-48.76,11.7-67.88c7.49-18.43,18.8-32.82,33.63-42.76,14.31-9.59,32.62-14.45,54.42-14.45.73,0,1.47,0,2.21.02,22.88.33,42.03,5.56,56.91,15.53,14.84,9.95,26.16,24.17,33.65,42.27,7.75,18.75,11.68,41.38,11.68,67.27s-3.94,48.75-11.7,67.87Z"/>
  <polygon class="cls-1" points="1428.02 746.87 1307.35 746.87 1304.36 743.46 1164.95 584.12 1164.95 746.87 1070.58 746.87 1070.58 333.14 1164.95 363.05 1164.95 496.87 1297.07 336.78 1300.07 333.14 1417.14 333.14 1403.18 349.61 1244.15 537.16 1413.47 730.28 1428.02 746.87"/>
  <path class="cls-1" d="M1768.02,428.08c-16.2-32.39-39.65-57.96-69.69-76.01-29.98-18-65.98-27.13-107-27.13s-77.02,9.13-107,27.13c-30.04,18.05-53.49,43.62-69.69,76.01-16.03,32.06-24.16,69.72-24.16,111.93s8.13,79.87,24.16,111.93c16.2,32.39,39.65,57.96,69.69,76.01,29.97,18,65.97,27.12,107,27.12s77.03-9.12,107-27.13c30.04-18.04,53.49-43.61,69.69-76.01,16.03-32.06,24.16-69.72,24.16-111.92s-8.13-79.86-24.16-111.93ZM1681.73,607.88c-7.49,18.44-18.81,32.83-33.62,42.76-14.32,9.59-32.62,14.46-54.4,14.46-.74,0-1.48-.01-2.23-.02-22.9-.33-42.05-5.56-56.92-15.53-14.84-9.95-26.16-24.17-33.65-42.27-7.75-18.74-11.68-41.37-11.68-67.27s3.94-48.76,11.7-67.88c7.49-18.43,18.81-32.82,33.63-42.76,14.31-9.59,32.62-14.45,54.42-14.45.74,0,1.47,0,2.21.02,22.89.33,42.04,5.56,56.92,15.53,14.83,9.95,26.15,24.17,33.64,42.27,7.75,18.75,11.69,41.38,11.69,67.27s-3.94,48.75-11.71,67.87Z"/>
</svg>