<?xml version="1.0" encoding="UTF-8"?>
<svg id="Camada_1" data-name="Camada 1" xmlns="http://www.w3.org/2000/svg" viewBox="0 0 132.38 150">
  <defs>
    <style>
      .cls-1 {
        fill: #95be47;
      }

      .cls-2 {
        fill: #5e8e3e;
      }

      .cls-3 {
        fill: #fefefe;
      }
    </style>
  </defs>
  <path class="cls-1" d="M92.29,17.33c-.93-.1-1.83.09-2.83.4l-3.67,1.12c-2.6-8.3-7.87-15.12-16.84-14.48-1.9-2.44-4.45-3.66-7.18-4.37h-4.69c-8.43,1.79-14.83,8.74-19.19,16.27-3.54,6.14-6.12,12.61-7.28,19.68l-16.46,5.15c-1.52.5-2.27,1.51-2.53,3.19L0,134l92.38,16-.09-132.67ZM69.19,24l-15.42,4.78c1.41-5.25,3.59-9.96,6.86-14.07,1.73-2.04,3.63-3.76,6.18-4.88,1.89,4.43,2.36,9.05,2.38,14.17ZM46.41,12.52c4.28-5.04,10.96-9.89,17.26-6.56-3.22,1.8-5.73,4.15-7.88,7.13-3.64,5.1-6.02,10.79-7.32,17.3l-12.67,3.95c1.86-8.11,5.51-15.46,10.61-21.81ZM45.71,73.2c2.77,5.6,18.04,8.95,20.95,22.08,2.99,13.49-4.18,27.5-18.81,28.61-8.69.66-16.96-1.92-23.28-7.65l3.11-13.31c2.96,2.06,5.77,3.67,8.98,4.78,1.88.65,3.76,1.04,5.77.92,3.55-.12,5.95-3.16,5.51-6.71-.32-2.58-1.78-4.76-3.87-6.33l-6.83-5.11c-4.96-3.71-7.5-9.01-7.66-15.18-.29-11.16,5.73-21.13,16.03-25.59,7.19-3.12,17.11-4.29,24.53-1.47l-4.61,17.33c-5.24-1.86-11.6-3.07-16.91-.49-2.89,1.52-4.4,5.09-2.9,8.11ZM74,22.47c-.08-4.7-.68-8.87-2.14-13.1,2.45.38,4.05,1.81,5.53,3.44,1.76,2.19,2.89,4.66,3.79,7.5l-7.18,2.16Z"/>
  <path class="cls-2" d="M132.38,140.08l-40,9.92-.09-132.67c.45.05.93.2,1.35.61l9.75,9.48,10.79.17c.82.01,1.51.36,1.76,1.25l16.44,111.25Z"/>
  <path class="cls-3" d="M47.86,123.89c-8.7.66-16.95-1.92-23.28-7.65l3.12-13.31c2.95,2.06,5.77,3.66,8.97,4.78,1.88.66,3.76,1.05,5.76.92,3.56-.13,5.96-3.16,5.51-6.7-.32-2.58-1.79-4.77-3.88-6.34l-6.83-5.12c-4.95-3.71-7.49-9-7.66-15.18-.29-11.15,5.73-21.13,16.03-25.59,7.19-3.12,17.12-4.28,24.53-1.46l-4.6,17.32c-5.24-1.86-11.61-3.06-16.92-.48-2.89,1.52-4.4,5.1-2.9,8.12,2.77,5.6,18.05,8.94,20.96,22.08,2.99,13.49-4.19,27.5-18.81,28.61Z"/>
</svg>