<?xml version="1.0" encoding="UTF-8"?>
<svg id="Camada_1" data-name="Camada 1" xmlns="http://www.w3.org/2000/svg" viewBox="0 0 826.45 160">
  <defs>
    <style>
      .cls-1 {
        fill: #54545f;
      }

      .cls-2 {
        fill: #f72dd3;
      }

      .cls-3 {
        fill: #104bb8;
      }

      .cls-4 {
        fill: #1350bf;
      }

      .cls-5 {
        fill: #37363d;
      }

      .cls-6 {
        fill: #37363e;
      }

      .cls-7 {
        fill: #35353b;
      }

      .cls-8 {
        fill: #144fbb;
      }

      .cls-9 {
        fill: #24252a;
      }

      .cls-10 {
        fill: #1651bc;
      }

      .cls-11 {
        fill: #0d70f9;
      }

      .cls-12 {
        fill: #0d71f9;
      }

      .cls-13 {
        fill: #25252a;
      }

      .cls-14 {
        fill: #3a3a41;
      }

      .cls-15 {
        fill: #34333c;
      }

      .cls-16 {
        fill: #0d70f8;
      }

      .cls-17 {
        fill: #545460;
      }

      .cls-18 {
        fill: #1259c8;
      }

      .cls-19 {
        fill: #125aca;
      }

      .cls-20 {
        fill: #fcfdfd;
      }

      .cls-21 {
        fill: #2463c0;
      }

      .cls-22 {
        fill: #fdfdfd;
      }
    </style>
  </defs>
  <path class="cls-22" d="M99.13,91.08c2.13,8.79-2.94,17.91-12.44,20.27-8.04,2-17.28-2.93-19.69-11.62-2.35-8.43,2.08-18.06,11.74-20.58,9.42-2.46,18.26,3.13,20.39,11.93Z"/>
  <path class="cls-22" d="M97.06,15.65C85.13,3.81,68.69-.96,52.2.23,19.89,2.56-2.82,30.12.28,62.18c2.45,25.26,20.61,45.11,45.9,49.43l-.13-23.86c-10.89-4.82-17.13-14.9-18.54-26.35l85.03.07c1.61-16.96-3.39-33.8-15.48-45.82ZM30.53,39.86c4.23-10.52,14.06-17.04,25.47-17.55,12.27-.54,23.3,6.24,27.21,18.6l-52.68-1.05Z"/>
  <path class="cls-22" d="M224.18,37.55c-.02-5.09-1.51-9.61-3.01-13.9-4.14-11.88-17.23-18.47-29.7-20.22l-6.47-.91-46.37-.12v22.02c0,.57.4.94.8.74l39.35.11c4.86.02,9.58,1.24,13.46,3.8,2.49,1.65,2.94,4.44,4.54,6.39v7.13h-58.1c-.97,0-.91,1.39-1.16,1.89-2.29,4.67-5.72,12.44-7.73,18.34-5.75,16.95-2.28,35.35,13.17,43.99,17.15,9.6,42.08,7.76,53.17-7.54.59-.81,1.28-1.95,2.51-1.55-.17,4.1-.47,8.12.88,12.58h25.01s-.34-72.76-.34-72.76ZM165.43,89.84c-6.64-2.11-10.45-7.98-9.46-15.03.66-4.73,2.47-9.08,4.76-13.41l36.34-.02.29,12.58c-5.28,13.15-18.69,20.09-31.92,15.88Z"/>
  <path class="cls-22" d="M327.12,78.84c-.06,13.84-7.53,25.87-21.41,30.62-21.28,7.28-45.04,2.37-61.97-12.74l15.72-19.5c9.57,9.66,25.21,16.84,35.99,9.64,2.57-1.81,3.87-4.65,3.79-7.61-.08-2.74-1.69-5.71-4.57-6.9l-11.7-4.81c-14.79-6.09-34.28-10.18-36.25-31.41-1.27-13.71,5.75-25.93,18.51-31.65,19.44-8.71,43.95-4.54,58.47,11.06-5.72,5.9-11.29,10.96-16.24,16.91-7.65-7.29-17.99-13.09-27.35-9.78-3.7,1.18-5.55,4.35-5.8,7.8-.26,3.54,1.78,6.84,5.3,8.2l12.46,4.8c7.02,2.7,14.08,4.79,20.44,8.6,9.71,5.83,14.65,15.5,14.61,26.78Z"/>
  <path class="cls-22" d="M420.71,2.43l29.96.02-3.61,9.5-53.05,132.29-6.28,15.74-28.65-.07c0-1.4.59-2.29.96-3.22l18.72-47.62-39.18-95.52-4.34-11.09,30.67-.02.6,2.25,26.98,71.38,26.68-71.21c.22-.68.16-1.36.53-2.43Z"/>
  <path class="cls-22" d="M571.2,19.59c-16.54-20.36-45.19-25.66-67.36-11.86l-7.43,5.71c-.06-.24-.11-.49-.16-.74,1.17-4.28.87-10.23-.04-10.23l-27.68-.02v156.72c0,.69.7.93,1.5.79l25.28-.05h.78c.32.04.8-.27.8-.87v-59.8c21.68,20.85,56.32,16.8,75.03-6.91,16.55-21.4,16.33-51.76-.72-72.74ZM523.54,87.12c-16.77-1.2-28.67-14.98-28.68-30.75,0-16.1,12.43-29.78,29.02-30.76,18-1.06,32.47,13.32,32.45,30.87-.02,17.32-14.43,31.95-32.8,30.64Z"/>
  <path class="cls-22" d="M695.85,37.54c-.02-3.85-1.17-7.52-2.07-10.71-4.94-17.52-23.3-24.25-40.93-24.04l-43.31-.37.31,20.54-.13,1.7c-.03.39.76.46,1.26.46l43,.45c4.32.05,8.77,2.21,11.19,5,2.89,3.32,4.21,8.03,2.8,12.58l-58.15-.53c-.8.82-.99,2.42-1.32,3.06-7.24,14.32-13.47,29.95-7.51,45.6,7.11,18.67,31.53,25.17,50.32,19.21,7.5-2.39,13.29-6.65,17.88-13.29,1.77,5.57.02,10.94,1.73,13.11l25.26-.04-.33-72.75ZM668.21,74.96c-5.28,13.11-19.21,19.02-31.76,14.78-7.18-2.43-10.52-9.09-8.85-16.4l4.47-11.98,36.54.06-.41,13.54Z"/>
  <path class="cls-22" d="M826.45,2.73l-62.91,157.11-28.98.09,20.05-50.66-42.84-104.66c-.35-.35-1.02-1.32-.54-2.14l30.25.13,27.79,73.66,27.32-73.16,1.18-.76,23.04.31,5.64.08Z"/>
  <path class="cls-1" d="M571.2,19.59c-16.54-20.36-45.19-25.66-67.36-11.86l-7.43,5.71c-.06-.24-.11-.49-.16-.74v-.02s-.02-.04-.02-.06c-.59-2.96-.8-6.21-.65-9.77l-26.65.11c.23,52.17.09,104.24-.39,156.22,0,.69.7.93,1.5.79l25.28-.05c.02-.66.28-.66.78,0,.32.04.8-.27.8-.87v-59.8c21.68,20.85,56.32,16.8,75.03-6.91,16.55-21.4,16.33-51.76-.72-72.74ZM523.54,87.12c-16.77-1.2-28.67-14.98-28.68-30.75,0-16.1,12.43-29.78,29.02-30.76,18-1.06,32.47,13.32,32.45,30.87-.02,17.32-14.43,31.95-32.8,30.64Z"/>
  <path class="cls-17" d="M826.45,2.73l-62.91,157.11-28.98.09,20.05-50.66-42.84-104.66c-.56-1.24.28-1.83,2.5-1.74l27.21-.27,27.79,73.66,27.32-73.16c8.04-.36,16.11-.52,24.22-.45l5.64.08Z"/>
  <path class="cls-11" d="M223.85,40.23c-.57-5.64-1.46-11.17-2.69-16.58-4.14-11.88-17.23-18.47-29.7-20.22-17.47-.76-34.99-.71-52.45-.51-.2,7.52-.06,14.93.4,22.24l39.35.11c4.86.02,9.58,1.24,13.46,3.8,2.49,1.65,2.94,4.44,4.54,6.39,1.33,3.1,1.27,5.6-.19,7.5l-56.98.06c-.79.3-1.49.79-2.09,1.47-2.29,4.67-5.72,12.44-7.73,18.34-5.75,16.95-2.28,35.35,13.17,43.99,17.15,9.6,42.08,7.76,53.17-7.54.59-.81,1.28-1.95,2.51-1.55l.96,11.81c8.13.41,16.3.5,24.52.28l-.25-69.58ZM165.43,89.84c-6.64-2.11-10.45-7.98-9.46-15.03.66-4.73,2.47-9.08,4.76-13.41l36.34-.02.29,12.58c-5.28,13.15-18.69,20.09-31.92,15.88Z"/>
  <path class="cls-1" d="M695.07,34.73c-.89-2.76-1.32-5.39-1.29-7.9-4.94-17.52-23.3-24.25-40.93-24.04l-42.37.06-.17,21.43c.09,0,.17,0,.24,0,.08.17.24.49.43.85l43,.45c4.32.05,8.77,2.21,11.19,5,2.89,3.32,4.21,8.03,2.8,12.58l-56.93-.13c-.95.37-1.8,1.26-2.54,2.66-7.24,14.32-13.47,29.95-7.51,45.6,7.11,18.67,31.53,25.17,50.32,19.21,7.5-2.39,13.29-6.65,17.88-13.29,1.77,5.57.02,10.94,1.73,13.11,7.93-.47,15.98-.61,24.17-.43.32-25.03.31-50.09-.02-75.17ZM668.21,74.96c-5.28,13.11-19.21,19.02-31.76,14.78-7.18-2.43-10.52-9.09-8.85-16.4l4.47-11.98,36.54.06-.41,13.54Z"/>
  <path class="cls-12" d="M449.64,3.29c-1.31,2.91-2.17,5.79-2.58,8.66l-53.05,132.29c-2.57,4.85-4.83,9.93-6.79,15.24l-25.89.03c-1.42.11-1.84-.83-1.28-2.82l18.72-47.62-39.18-95.52c-.66-3.55-1.84-7.06-3.55-10.54,8.79-.37,17.54-.32,26.24.13h.09c.35.02.69.04,1.04.06.77.05,1.54.09,2.32.14l.79,1.35,26.98,71.38,26.68-71.21c.6-1.09,1.41-1.78,2.44-2.06,8.74-.2,17.35-.06,25.81.43.14,0,.28.02.41.02.27.02.54.03.8.05Z"/>
  <path class="cls-16" d="M97.06,15.65C85.13,3.81,68.69-.96,52.2.23,19.89,2.56-2.82,30.12.28,62.18c2.45,25.26,20.61,45.11,45.9,49.43l-.13-23.86c-10.89-4.82-17.13-14.9-18.54-26.35l85.03.07c1.61-16.96-3.39-33.8-15.48-45.82ZM30.53,39.86c4.23-10.52,14.06-17.04,25.47-17.55,12.27-.54,23.3,6.24,27.21,18.6l-52.68-1.05Z"/>
  <path class="cls-12" d="M327.12,78.84c-.06,13.84-7.53,25.87-21.41,30.62-21.28,7.28-45.04,2.37-61.97-12.74l15.72-19.5c9.57,9.66,25.21,16.84,35.99,9.64,2.57-1.81,3.87-4.65,3.79-7.61-.08-2.74-1.69-5.71-4.57-6.9l-11.7-4.81c-14.79-6.09-34.28-10.18-36.25-31.41-1.27-13.71,5.75-25.93,18.51-31.65,19.44-8.71,43.95-4.54,58.47,11.06-5.72,5.9-11.29,10.96-16.24,16.91-7.65-7.29-17.99-13.09-27.35-9.78-3.7,1.18-5.55,4.35-5.8,7.8-.26,3.54,1.78,6.84,5.3,8.2l12.46,4.8c7.02,2.7,14.08,4.79,20.44,8.6,9.71,5.83,14.65,15.5,14.61,26.78Z"/>
  <path class="cls-2" d="M86.69,111.35c-8.04,2-17.28-2.93-19.69-11.62-2.35-8.43,2.08-18.06,11.74-20.58,9.42-2.46,18.26,3.13,20.39,11.93,2.13,8.79-2.94,17.91-12.44,20.27Z"/>
  <path class="cls-7" d="M496.24,12.77l.17.67c-.39.31-1.13-.06-1.13-.67l-.02-9.57-25.95.04.02,154.09c0,.82.91,1.75.46,1.76l-1.28.08V2.46l27.68.02c.55,3.38.57,6.78.04,10.2,0,.03,0,.06-.02.09Z"/>
  <path class="cls-14" d="M696.18,110.29l-25.26.04c.02-1.18-.28-2.35.28-4.07.69.9.61,1.82.7,3.28l22.65-.02-.06-74.7-1.54-6.43c-.2-.83.23-1.5.83-1.55.9,3.19,2.05,6.86,2.07,10.71l.33,72.75Z"/>
  <path class="cls-19" d="M224.51,110.3h-25.01c-1.35-4.46-1.06-8.47-.88-12.57,1.65,3.03,1.65,6.95,1.21,11.62l23.86.17-.17-69.25-2.31-13.37c-.2-1.14-1.45-2.5-.05-3.24,1.5,4.28,2.98,8.81,3.01,13.9l.34,72.75Z"/>
  <path class="cls-6" d="M610.77,23.76l38.93.02c0,.28-.14.56-.44.71l-35.88-.06c-1.13,0-1.9,0-2.39.71-.5,0-1.29-.08-1.26-.46l.13-1.7-.31-20.54,43.31.37-41.8.49-.28,20.47Z"/>
  <path class="cls-4" d="M191.47,3.43c-3.72,1.12-7.86.83-11.98-.21h-40.07s0,21.95,0,21.95c-.39.2-.8-.17-.8-.74V2.41l46.37.12,6.47.91Z"/>
  <path class="cls-18" d="M197.54,43.32l-57.79.13c-.31,0-1.08.92-1.13,1.12-.09.35-.91.57-1.11-.08.24-.5.19-1.9,1.16-1.9h58.1s0-7.13,0-7.13c1.6,1.94,2.76,5.43.77,7.85Z"/>
  <path class="cls-5" d="M667.96,43.17l-56.84.26c-.92,0-1.59,1.65-1.44,2.46-.31.94-1.17.57-1.19-.18.33-.65.53-2.24,1.32-3.06l58.15.53Z"/>
  <path class="cls-15" d="M496.14,99.67l-.05,60.25h-.78l.07-60.69c.23-.09.76.21.76.44Z"/>
  <path class="cls-10" d="M450.67,2.45l-3.61,9.5c-1.96-2.91,2.01-5.12,1.78-8.71v-.02h-.41l-25.63-.06c-.8.69-1.31,2.1-2.62,1.69.22-.68.16-1.36.53-2.43l29.96.02Z"/>
  <path class="cls-8" d="M366.53,4.69c-.83-.89-1.83-1.35-3.1-1.5-.33-.04-.68-.06-1.04-.06h-.09l-25.52.27,2.98,7.45c.43,1.06.57,2.11-.16,2.69l-4.34-11.09,30.67-.02.6,2.25Z"/>
  <path class="cls-21" d="M394.01,144.24l-6.28,15.74-28.65-.07c0-1.4.59-2.29.96-3.22.07.29.6,2.42,1.4,2.41l25.35-.13,5.97-14.37c-.37-.67.57-1.67,1.24-.35Z"/>
  <path class="cls-9" d="M741.48,2.6l-26.53.62c-1.46.04-2.42.36-3.19,1.39-.35-.35-1.02-1.32-.54-2.14l30.25.13Z"/>
  <polygon class="cls-13" points="826.45 2.73 796.6 3.1 797.78 2.35 820.82 2.65 826.45 2.73"/>
  <path class="cls-1" d="M496.25,12.7s0,.05-.02.07v-.16l-.02-10.14c.91,0,1.2,5.95.04,10.23Z"/>
  <path class="cls-20" d="M83.21,40.91c-17.38-.1-34.76-.28-52.15-.54l-.53-.51,52.68,1.05Z"/>
  <path class="cls-3" d="M83.21,40.91l-51.65.15c-.63,0-1.2-.78-1.03-1.2l52.68,1.05Z"/>
</svg>