<?xml version="1.0" encoding="UTF-8"?>
<svg id="Camada_1" data-name="Camada 1" xmlns="http://www.w3.org/2000/svg" viewBox="0 0 671.68 145">
  <defs>
    <style>
      .cls-1 {
        fill: #56b5ab;
      }

      .cls-2 {
        fill: #56bda6;
      }

      .cls-3 {
        fill: #4c98b5;
      }

      .cls-4 {
        fill: #55b1ae;
      }

      .cls-5 {
        fill: #0b1b18;
      }

      .cls-6 {
        fill: #00100d;
      }

      .cls-7 {
        fill: #55b2ac;
      }

      .cls-8 {
        fill: #011512;
      }

      .cls-9 {
        fill: #010f0c;
      }

      .cls-10 {
        fill: #0d221f;
      }

      .cls-11 {
        fill: #001310;
      }

      .cls-12 {
        fill: #55b6aa;
      }

      .cls-13 {
        fill: #57a6b4;
      }

      .cls-14 {
        fill: #579cbb;
      }

      .cls-15 {
        fill: #223331;
      }

      .cls-16 {
        fill: #fbfbfb;
      }

      .cls-17 {
        fill: #55b9a8;
      }

      .cls-18 {
        fill: #fdfefd;
      }

      .cls-19 {
        fill: #011411;
      }

      .cls-20 {
        fill: #00130f;
      }

      .cls-21 {
        fill: #091c19;
      }

      .cls-22 {
        fill: #000c09;
      }

      .cls-23 {
        fill: #243532;
      }

      .cls-24 {
        fill: #00120f;
      }

      .cls-25 {
        fill: #57a5b5;
      }

      .cls-26 {
        fill: #56abb1;
      }

      .cls-27 {
        fill: #55bfa3;
      }

      .cls-28 {
        fill: #011714;
      }

      .cls-29 {
        fill: #001411;
      }

      .cls-30 {
        fill: #000f0c;
      }

      .cls-31 {
        fill: #55bca6;
      }

      .cls-32 {
        fill: #56b2ae;
      }

      .cls-33 {
        fill: #061b18;
      }

      .cls-34 {
        fill: #0a1916;
      }

      .cls-35 {
        fill: #091e1b;
      }

      .cls-36 {
        fill: #000b08;
      }

      .cls-37 {
        fill: #55b8a9;
      }

      .cls-38 {
        fill: #000e0b;
      }

      .cls-39 {
        fill: #fefefe;
      }

      .cls-40 {
        fill: #021613;
      }

      .cls-41 {
        fill: #051a17;
      }

      .cls-42 {
        fill: #000d0a;
      }

      .cls-43 {
        fill: #fdfefe;
      }

      .cls-44 {
        fill: #56a1b8;
      }

      .cls-45 {
        fill: #56acb0;
      }

      .cls-46 {
        fill: #4abb9d;
      }
    </style>
  </defs>
  <path class="cls-39" d="M9.37,76.18c-3.36-.68-6.65-2.99-8.27-6.83-1.48-3.52-1.52-7.03.29-10.39,1.82-3.35,4.74-5.42,7.25-7.95l22.82-23.06c1.95-1.98,3.92-3.07,6.6-2.74,2.67.32,10.66,7.49,10.85,13.54.25,8.4-6.85,11.52-8.5,13.83-1.75,2.46-4,4.01-5.94,6.08-3.02,3.26-6.28,5.96-9.21,9.13l-4.01,4.34c-3.16,3.43-7.05,5.03-11.88,4.06Z"/>
  <path class="cls-39" d="M52.93,90.45c-2.69,2.68-5.42,5.46-8.14,8.18l-7.05,7.03-5.63,5.61c-2.96,2.95-7.78,3.54-12.08,1.84-2.58-1.02-6.17-3.55-6.44-7.21-2.97-5.63.93-10.69,4.78-14.51l8.14-8.11,9.06-8.99c1.97-1.96,3.82-4.24,6.1-6.07,1.17-.94,2.85-2.73,3.88-3.89,2.28-2.56,4.76-4.92,7.18-7.24,9.92-9.45,10.74-24.76.7-34.59-1.68-1.65-2.25-3.7-2.78-5.46-.63-2.16-.38-3.89.07-5.96C51.64,6.78,58.24-.08,62.3,0c2.38.05,3.5,1.52,5.38,3.16,19.31,16.87,22.31,45.69,6.6,65.42-1.73,2.17-3.54,4.02-5.47,6l-5.6,5.68c-1.42,1.45-3.15,3.05-4.56,4.45l-5.72,5.73Z"/>
  <path class="cls-39" d="M101.57,90.02c-.07,2.24-1.54,3.32-3.18,4.96l-7.09,7.11-8.06,8.08-8.08,8.06c-2.13,2.12-3.91,4.15-6.32,6.01-3.3,2.53-7.24,2.92-11.22,1.47-3.51-1.28-6.07-4.17-6.96-8-.48-2.1-.5-3.88-.04-6.28.47-2.49,1.97-3.41,3.12-5,2.38-3.3,5.35-5.57,8-8.23l7.99-8.03,6.99-6.92c2.27-2.25,4.04-4.28,7.6-5.19,8.7-2.23,17.37,7.51,17.24,11.97Z"/>
  <path class="cls-39" d="M223.18,66.5c.05-.35.1-.7.15-1.05-1.94-19.45-16.84-35.37-36.48-36.46l-8.97.04c-22.68,1.5-38.94,20.5-38.53,43.42.38,20.83,14.16,37.3,34.31,40.61,1.85.3,3.88,1.04,6.16.92,4.71-.23,9.78.68,14.28-1.06l.9.14c7.92-1.29,15.61-4.02,22.7-9.59l-11.16-17.2c-8.72,6.27-19.87,8.5-30.07,4.8-5.21-1.88-9.23-6.47-9.87-11.25l56.73-.36c1.35-2.69,1.38-9.65-.14-12.94ZM183.57,49.61c7.86.31,15.22,4.52,15.59,13.61l-32.81-1.46c.88-8.36,9.02-12.48,17.21-12.14Z"/>
  <path class="cls-39" d="M309.97,31.55l.03,80.35-24.7.02c-1.36-2.53-.58-5.56-.56-9.39-10.59,9.77-23.66,13.38-36.6,10.43-.27.03-.59.15-.87.09-8.8-1.81-15.73-8.52-17.21-17.43l.04-.86c-.48-.33-.97-1.04-.96-2.16l.32-61.69h25.61l.47,49.44c.05,5.61,3.51,9.25,9.22,10.41,6.52,1.33,16.53-1.88,19.89-8.25l-.03-51.39,25.35.42Z"/>
  <path class="cls-39" d="M398.7,50.08c-4.43-11.57-14.65-19.86-26.39-20.93l-10.1-.02c-7.35-.02-13.86,4.52-18.99,10.16-.29-3.28.48-6.17-1.06-8.73l-25.49.99-.05,111.08,26.18.22.22-39.66c8.73,9.42,19.85,12.5,32.41,9.69,25.68-5.74,32.3-39.17,23.25-62.8ZM367.79,88.12c-8.08,5.07-18.77,2.62-24.79-4.47l.67-24.94c1.44-4.18,8.18-5.88,11.83-7.08,2.22-.73,3.9-.27,5.64.07,8.61,1.68,14.2,8.71,14.68,17.52.39,7.16-1.59,14.87-8.03,18.91Z"/>
  <path class="cls-39" d="M485.35,52.27c-2.56-14.51-16.18-23.11-30.4-23.21l-13.14-.1c-2.15-.01-4.1,1.17-6.42,1.39-8.88.87-16.9,5.25-23.83,10.88l9.62,18.11c12.3-11.04,34.82-11.81,38.27-.66,1.07,3.49.54,7.08.27,10.78-5.56-5.07-12.62-8.15-19.92-8.13l-9.04.02c-12.24.04-23.28,9.83-23.26,22.17l.02,7.08c.03,15.32,18.8,26.88,35.56,22.34l.83.05c6.01-1.17,11.29-3.99,15.87-8.13.14,3.34-.14,5.55,1.21,6.98.31-.09.69.04,1.15.04l21.7.03c.35,0,2.01-.06,2.28-.47l.12-54.13-.9-5.05ZM459.28,91.65c-4.95,5.99-14.47,6.34-20.95,3.65-3.44-1.43-5.1-4.35-5.27-7.33-.19-3.29,1.7-6.63,5.16-8.11,7.12-3.04,15.35-1.92,21.39,3.08.3,2.13,1.53,6.47-.32,8.71Z"/>
  <path class="cls-39" d="M576.89,31.12l-24.18-.09c-1.56,2.07-.91,4.94-1.21,8.45-5.42-5.99-12.27-10.37-19.98-10.39l-8.08-.03c-13.13-.04-24.45,9.83-28.6,22.89-3.86,12.17-3.71,25.38.71,37.22,4.75,12.71,15.74,20.33,29.01,21.37,10.63.84,20.04-2.91,26.79-11.16,1.7,12.25-1.62,19.74-12.69,23.81-7.88,2.89-25.08-.48-32.08-8.69l-11.4,18.28c14.98,13.4,40.6,15.03,58.85,8.55,14.13-5.02,23.57-17.29,23.63-32.72l.28-76.41c0-.36-.17-1.06-1.05-1.06ZM550.98,80.21c-2.93,7.08-14.14,8.22-20.39,6.67-7.6-1.88-9.53-7.53-12.27-13.18.01-2.54.08-4.83.38-6.9,1.22-8.36,6.92-14.09,15.28-15.14,1.35-.17,2.71-.67,4.39-.03,3.57,1.35,11.18,2.22,12.63,7.27,1.06,6.07,1.62,15.16-.03,21.32Z"/>
  <path class="cls-39" d="M632.71,29.07l-9.02-.02c-21.88-.06-38.92,17.46-40.04,39.35-.67,12.89,3.45,25.1,12.73,33.95,9.33,8.93,21.77,12.21,34.53,11.62l6.42-.8c18.76-2.34,32.97-17.99,34.34-37.31l.02-8.09c.07-21.18-17.79-37.62-38.97-38.7ZM638.79,87.11c-5.85,5-16.18,5.26-22-.1-8.61-7.9-8.47-21.63-1.32-30.26,2.77-3.35,6.62-4.17,10.5-5.24,1.49-.4,2.87-.03,4.22.2,7.08,1.26,12.35,5.65,14.25,12.79,2.11,7.9.97,16.95-5.65,22.61Z"/>
  <path class="cls-35" d="M552.72,31.03c-1.56,2.07-.91,4.94-1.21,8.45-5.42-5.99-12.27-10.37-19.98-10.39-2.62.83-5.46.81-8.08-.03-13.13-.04-24.45,9.83-28.6,22.89-3.86,12.17-3.71,25.38.71,37.22,4.75,12.71,15.74,20.33,29.01,21.37,10.63.84,20.04-2.91,26.79-11.16,1.7,12.25-1.62,19.74-12.69,23.81-7.88,2.89-25.08-.48-32.08-8.69l-11.4,18.28c14.98,13.4,40.6,15.03,58.85,8.55,14.13-5.02,23.57-17.29,23.63-32.72l.28-76.41c-8.42-.37-16.82-.76-25.23-1.15ZM550.98,80.21c-2.93,7.08-14.14,8.22-20.39,6.67-7.6-1.88-9.53-7.53-12.27-13.18.01-2.54.08-4.83.38-6.9,1.22-8.36,6.92-14.09,15.28-15.14,1.35-.17,2.71-.67,4.39-.03,3.57,1.35,11.18,2.22,12.63,7.27,1.06,6.07,1.62,15.16-.03,21.32Z"/>
  <path class="cls-35" d="M398.7,50.08c-4.43-11.57-14.65-19.86-26.39-20.93-3.32.73-6.79.79-10.1-.02-7.35-.02-13.86,4.52-18.99,10.16-.29-3.28.48-6.17-1.06-8.73-7.27.83-14.61,1.19-22.02,1.07-1.15-.01-2.31-.04-3.47-.08l-.05,111.08,26.18.22.22-39.66c8.73,9.42,19.85,12.5,32.41,9.69,25.68-5.74,32.3-39.17,23.25-62.8ZM367.79,88.12c-8.08,5.07-18.77,2.62-24.79-4.47l.67-24.94c1.44-4.18,8.18-5.88,11.83-7.08,2.22-.73,3.9-.27,5.64.07,8.61,1.68,14.2,8.71,14.68,17.52.39,7.16-1.59,14.87-8.03,18.91Z"/>
  <path class="cls-35" d="M671.68,67.77c.07-21.18-17.79-37.62-38.97-38.7-2.96.73-6.1.91-9.02-.02-21.88-.06-38.92,17.46-40.04,39.35-.67,12.89,3.45,25.1,12.73,33.95,9.33,8.93,21.77,12.21,34.53,11.62,2.02-.98,4.24-.98,6.42-.8,18.76-2.34,32.97-17.99,34.34-37.31-.74-2.66-.92-5.48.02-8.09ZM638.79,87.11c-5.85,5-16.18,5.26-22-.1-8.61-7.9-8.47-21.63-1.32-30.26,2.77-3.35,6.62-4.17,10.5-5.24,1.49-.4,2.87-.03,4.22.2,7.08,1.26,12.35,5.65,14.25,12.79,2.11,7.9.97,16.95-5.65,22.61Z"/>
  <path class="cls-35" d="M454.95,29.06c-3.9.82-9.3.94-13.14-.1-2.15-.01-4.1,1.17-6.42,1.39-8.88.87-16.9,5.25-23.83,10.88l9.62,18.11c12.3-11.04,34.82-11.81,38.27-.66,1.07,3.49.54,7.08.27,10.78-5.56-5.07-12.62-8.15-19.92-8.13-2.95.82-6.08.82-9.04.02-12.24.04-23.28,9.83-23.26,22.17.85,2.29.85,4.79.02,7.08.03,15.32,18.8,26.88,35.56,22.34-1.65-.99-1.37-.97.83.05,6.01-1.17,11.29-3.99,15.87-8.13.14,3.34-.14,5.55,1.21,6.98,0-1.14.38-1.13,1.15.04l21.7.03,1.14-.69c-.01-19.75.11-39.42.36-58.97-2.56-14.51-16.18-23.11-30.4-23.21ZM459.28,91.65c-4.95,5.99-14.47,6.34-20.95,3.65-3.44-1.43-5.1-4.35-5.27-7.33-.19-3.29,1.7-6.63,5.16-8.11,7.12-3.04,15.35-1.92,21.39,3.08.3,2.13,1.53,6.47-.32,8.71Z"/>
  <path class="cls-35" d="M186.85,28.99c-2.92.86-6.05.88-8.97.04-22.68,1.5-38.94,20.5-38.53,43.42.38,20.83,14.16,37.3,34.31,40.61,2.1-.01,4.22.07,6.16.92,4.71-.23,9.78.68,14.28-1.06-3.01-1.33-1.1-.63.9.14,7.92-1.29,15.61-4.02,22.7-9.59l-11.16-17.2c-8.72,6.27-19.87,8.5-30.07,4.8-5.21-1.88-9.23-6.47-9.87-11.25,1.98-.3,2.04-1.07.1-1.3,18.61-.34,37.1-.68,55.43-1,.18-3.48.48-6.85.94-10.12.02-.19.05-.39.08-.58.01-.1.02-.2.04-.3.05-.35.1-.7.15-1.05-1.94-19.45-16.84-35.37-36.48-36.46ZM183.57,49.61c7.86.31,15.22,4.52,15.59,13.61l-32.81-1.46c.88-8.36,9.02-12.48,17.21-12.14Z"/>
  <path class="cls-35" d="M310,111.89l-24.7.02-.56-9.39c-10.59,9.77-23.66,13.38-36.6,10.43l-.87.09c-8.8-1.81-15.73-8.52-17.21-17.43.97-2.63.98-2.92.04-.86-.48-.33-.97-1.04-.96-2.16l.32-61.69c8.27,1.07,17.32,1.07,25.61,0l.47,49.44c.05,5.61,3.51,9.25,9.22,10.41,6.52,1.33,16.53-1.88,19.89-8.25l.59-50.86,24.72-.11.03,80.35Z"/>
  <path class="cls-27" d="M74.28,68.58c-1.27.23-2.6.34-3.82-.12-3.16-1.2-12.8-6.25-15.61-8.16-1.09-.74-1.66-2-2.15-3.18,9.92-9.45,10.74-24.76.7-34.59-1.68-1.65-2.25-3.7-2.78-5.46.56-1.97.63-3.97.07-5.96C51.64,6.78,58.24-.08,62.3,0c2.38.05,3.5,1.52,5.38,3.16,19.31,16.87,22.31,45.69,6.6,65.42Z"/>
  <path class="cls-27" d="M48.9,38.74c.25,8.4-6.85,11.52-8.5,13.83-.96,1.06-2.02,1.64-3.18,1.76-8.97-2.02-17.97-2.2-27.12-1.37l-1.47-1.96,22.82-23.06c1.95-1.98,3.92-3.07,6.6-2.74,2.67.32,10.66,7.49,10.85,13.54Z"/>
  <path class="cls-13" d="M52.93,90.45c-2.69,2.68-5.42,5.46-8.14,8.18l-2.51.92c-7.24-3.08-14.87-5.06-22.91-5.91l-1.02-2.24,8.14-8.11c6.51-4.2,19.12,1.06,25.63,4.57l.81,2.59Z"/>
  <path class="cls-12" d="M34.47,58.65c-3.02,3.26-6.28,5.96-9.21,9.13-7.08,1.73-15.23,2.51-22.64,2.92l-1.53-1.35c-1.48-3.52-1.52-7.03.29-10.39.27.06.5.12.71.19,1.17-2.02,27.8-3.31,30.97-2.52l1.41,2.02Z"/>
  <path class="cls-31" d="M40.41,52.57c-1.75,2.46-4,4.01-5.94,6.08l-19.93-.08-13.15,2.67c-.3-.84-.04-1.45-.01-2.28,1.82-3.35,4.74-5.42,7.25-7.95l14.95-.67,13.39,1.76c1.18.15,2.29,1.6,3.44.46Z"/>
  <path class="cls-44" d="M44.78,98.64l-7.05,7.03-2.22.43c-6.12-3.95-15.66-3.16-21.94-.18-2.97-5.63.93-10.69,4.78-14.51l13.31,2.42c4.73.71,9.27,2.6,13.12,4.81Z"/>
  <path class="cls-26" d="M84.31,107.32l-1.07,2.85-8.08,8.06-2.31.03c-3.32-6.51-7.3-12.39-12.13-17.8,0,0,.34-.76,1.03-2.27l7.99-8.03,2.44.5c4.15,5.47,8.2,11.03,12.13,16.65Z"/>
  <path class="cls-7" d="M91.82,99.75l-.51,2.34-8.06,8.08c-2.17-7.35-10.41-12.36-13.51-20.01l6.99-6.92,2.24.26c4.63,5.1,8.91,10.51,12.85,16.25Z"/>
  <path class="cls-45" d="M58.65,84.72l-5.72,5.73c-8.05-3.74-18.33-8.04-26.44-7.16l9.06-8.99,2.44-1.3c7.31,1.77,14.06,4.72,20.27,8.81l.39,2.9Z"/>
  <path class="cls-14" d="M37.73,105.67l-5.63,5.61c-2.96,2.95-7.78,3.54-12.08,1.84-2.58-1.02-6.17-3.55-6.44-7.21-.12-1.64-.28-3.78.17-5.29,1.11.75,1.01,1.97,1.25,2.56,0-1.08,18.4-4.25,22.74,2.48Z"/>
  <path class="cls-44" d="M69.83,122l-.99,2.24c-3.3,2.53-7.24,2.92-11.22,1.47-3.51-1.28-6.07-4.17-6.96-8,.58-2.07.58-4.21-.04-6.28.47-2.49,1.97-3.41,3.12-5,6.02-4.3,13.75,10.61,16.09,15.57Z"/>
  <path class="cls-25" d="M75.16,118.23c-2.13,2.12-3.91,4.15-6.32,6.01l-8.51-13.89c-1.55-2.46-3.93-3.56-6.59-3.92,2.38-3.3,5.35-5.57,8-8.23,1.86,3.72,5.27,6,7.27,9.33l6.15,10.7Z"/>
  <path class="cls-17" d="M74.28,68.58c-1.73,2.17-3.54,4.02-5.47,6l-3.17.33c-6.06-3.39-12.32-6.23-18.79-8.55l-1.32-2.02c2.28-2.56,4.76-4.92,7.18-7.24,7.49,3.37,14.8,6.74,21.58,11.47Z"/>
  <path class="cls-37" d="M98.39,94.98l-7.09,7.11c-3.09-2.83-4.45-6.56-7.05-9.67-2.64-3.14-6.26-5.05-7.52-9.18,2.27-2.25,4.04-4.28,7.6-5.19l2.89.81c2.6,4.45,5.57,8.68,8.94,12.7,1.95.62,2.69,1.76,2.23,3.43Z"/>
  <path class="cls-4" d="M63.21,80.27c-1.42,1.45-3.15,3.05-4.56,4.45-7.18-6.14-14.95-7.57-23.1-10.41,1.97-1.96,3.82-4.24,6.1-6.07l2.37-1.15,16.05,7.19c3.88,1.95,4.93,3.94,3.13,5.99Z"/>
  <path class="cls-1" d="M68.81,74.58l-5.6,5.68c-1.13-2.6-3.36-4-6.02-5.14l-15.54-6.88c1.17-.94,2.85-2.73,3.88-3.89,2.42-.29,4.15.99,6.34,1.86,6.05,2.4,11.72,4.76,16.94,8.37Z"/>
  <path class="cls-32" d="M25.26,67.78l-4.01,4.34c-3.16,3.43-7.05,5.03-11.88,4.06-3.36-.68-6.65-2.99-8.27-6.83l10.71-1.44c5-.83,8.73-1.79,13.45-.13Z"/>
  <path class="cls-2" d="M101.57,90.02c-.07,2.24-1.54,3.32-3.18,4.96l-3.65-1.78c-1.62-3.39-3.97-5.35-6.21-8.05-1.8-2.16-2.49-5.1-4.2-7.1,8.7-2.23,17.37,7.51,17.24,11.97Z"/>
  <path class="cls-33" d="M486.25,57.32l-.12,54.13c-.27.41-1.93.47-2.28.47l.3-58.54c0-.78.68-1.18,1.2-1.12l.9,5.05Z"/>
  <polygon class="cls-30" points="309.97 31.55 285.86 32.2 284.65 82.51 284.62 31.12 309.97 31.55"/>
  <path class="cls-10" d="M223.32,79.44c-19.01-.16-37.88-.47-56.63-.94-.06-.39.35-1.01,1.09-1.01h54.34c.36-3.38.67-6.75.94-10.11.03-.32.05-.66.08-.98.01.03.03.06.04.09,1.52,3.3,1.49,10.25.14,12.94Z"/>
  <path class="cls-36" d="M223.32,79.44l-56.73.36.1-1.3h55.34c.75,0,1.16.61,1.29.94Z"/>
  <path class="cls-34" d="M341.63,40.35c-1.14-2.57-.43-5.13-.59-8.21l-20.89-.51-3.47-.08,25.49-.99c-.42,3.33.66,6.15-.53,9.8Z"/>
  <path class="cls-5" d="M577.94,32.18l-24.15-.05-.08,7.57c-.22.45-.63.52-.71.52-.91-3.07-.12-6.19-.29-9.19l24.18.09c.88,0,1.05.7,1.05,1.06Z"/>
  <path class="cls-9" d="M255.06,30.91c-.7.84-1.39,1.3-2.63,1.3h-20.34c-1.08,0-1.86-.34-2.64-1.3h25.61Z"/>
  <path class="cls-38" d="M453.91,30.09h-11.05c-.74-.01-1.13-.62-1.05-1.14l13.14.1c.09.4-.3,1.04-1.05,1.04Z"/>
  <path class="cls-8" d="M223.14,66.41v10.11c0,.86-.66.98-1.01.98l.04-11.08c0-.75.64-1.13,1.17-.97l-.2.96Z"/>
  <path class="cls-30" d="M372.31,29.15c-2.86,1.47-7.36,1.56-10.1-.02l10.1.02Z"/>
  <path class="cls-30" d="M285.29,111.91c-1.36-2.53-.58-5.56-.56-9.39,1.58,3.58.76,6.43.56,9.39Z"/>
  <path class="cls-38" d="M439.82,61.34c-2.36,1.63-6.69,1.61-9.04.02l9.04-.02Z"/>
  <path class="cls-22" d="M632.71,29.07c-2.75,1.64-7.11,1.64-9.02-.02l9.02.02Z"/>
  <path class="cls-42" d="M186.85,28.99c-2.36,1.72-6.7,1.71-8.97.04l8.97-.04Z"/>
  <path class="cls-42" d="M531.53,29.09c-1.98,1.65-6.08,1.64-8.08-.03l8.08.03Z"/>
  <path class="cls-46" d="M50.62,17.06c-.63-2.16-.38-3.89.07-5.96,1.68,1.37,1.74,4.73-.07,5.96Z"/>
  <path class="cls-22" d="M671.68,67.77l-.02,8.09c-1.65-2.38-1.66-6.46.02-8.09Z"/>
  <path class="cls-3" d="M50.66,117.71c-.48-2.1-.5-3.88-.04-6.28,1.8,1.54,1.75,4.91.04,6.28Z"/>
  <path class="cls-20" d="M462.15,111.89c-.46,0-.84-.13-1.15-.04.06-2.37-.39-4.82.24-7.17.18,0,.55.12.74.52l.17,6.68Z"/>
  <path class="cls-22" d="M407.54,90.61l-.02-7.08c1.69,1.62,1.68,5.44.02,7.08Z"/>
  <path class="cls-21" d="M194.99,113.05l-.9-.14-6.37-.55c2.27-1.09,5.69-1.25,7.27.7Z"/>
  <path class="cls-11" d="M230.08,94.76c.05-1.55-.28-3.07.48-5.3,1.19,1.9,1.13,4.9-.52,6.16l.04-.86Z"/>
  <path class="cls-23" d="M179.81,113.97c-2.28.12-4.3-.61-6.16-.92,2-.41,4.74-.9,6.16.92Z"/>
  <path class="cls-15" d="M637.32,113.17l-6.42.8c1.81-1.82,4.56-1.33,6.42-.8Z"/>
  <path class="cls-19" d="M252.48,112.42l-4.35.53c-.27.03-.59.15-.87.09.77-1.74,3.62-1.96,5.22-.62Z"/>
  <path class="cls-19" d="M443.92,113l-.83-.05c-1.27-.08-2.48.15-4.41-.52,1.6-1.33,4.41-1.12,5.24.57Z"/>
  <path class="cls-18" d="M518.71,66.79c-.3,2.08-.37,4.36-.38,6.9-.82-2.71-.69-5.02.38-6.9Z"/>
  <path class="cls-18" d="M538.38,51.62c-1.68-.63-3.04-.14-4.39.03.79-1.29,3.55-1.32,4.39-.03Z"/>
  <path class="cls-28" d="M552.85,80.64v-22.34c.32,0,.66.16.84.55l.04,20.18c0,.79-.03,1.27-.88,1.61Z"/>
  <path class="cls-38" d="M518.71,66.79c-.3,2.08-.37,4.36-.38,6.9-1.35-2.79-1.07-5.7-.72-9.41,1.31.57,1.03,1.63,1.1,2.51Z"/>
  <path class="cls-6" d="M540.71,50.41c-.52,1.53-1.7,1.11-2.33,1.21-1.68-.63-3.04-.14-4.39.03-.53-.21-1.64.12-2.51-1.02,2.89-.63,5.68-.4,9.23-.22Z"/>
  <path class="cls-28" d="M553.01,106.82l-.37-7.64c.23-.33.6-.54.69-.55.58,3.02.85,6.78-.32,8.19Z"/>
  <path class="cls-43" d="M361.13,51.69c-1.74-.34-3.43-.8-5.64-.07,1.42-1.19,4.34-1.2,5.64.07Z"/>
  <path class="cls-24" d="M341.06,83.06v-24.21c.18-.39.53-.55.85-.55l.22,24.76c-.04.67-1.07.62-1.07,0Z"/>
  <path class="cls-38" d="M363.31,50.42c-.55,1.36-1.67,1.06-2.18,1.27-1.74-.34-3.43-.8-5.64-.07-.77.18-1.51-.85-1.19-1.17l9.01-.03Z"/>
  <path class="cls-40" d="M362.23,92.25c-2.16.69-4.41.35-6.57.33-.37-.19-.51-.51-.53-.63l6.57-.37c.37.26.51.57.53.66Z"/>
  <path class="cls-39" d="M630.19,51.71c-1.35-.23-2.73-.6-4.22-.2.68-1.25,3.4-1.04,4.22.2Z"/>
  <path class="cls-6" d="M632.43,50.43c-.61,1.35-1.72,1.06-2.24,1.28-1.35-.23-2.73-.6-4.22-.2-.83-.08-1.93.27-2.77-.89,2.89-.62,5.67-.41,9.23-.19Z"/>
  <path class="cls-29" d="M631.4,92.25c-2.23.67-4.47.35-6.63.33-.36-.22-.52-.54-.53-.6,2.67-.62,6.15-.8,7.16.28Z"/>
  <path class="cls-24" d="M460.89,69.89l-.08-9.03.85-.53.31,9.63c-.18.71-1.08.51-1.08-.07Z"/>
  <path class="cls-11" d="M461.28,91.62l-.33-7.57c.27-.38.59-.51.7-.53.68,2.5.31,5.07.32,7.57-.18.39-.52.52-.68.53Z"/>
  <path class="cls-16" d="M199.16,63.21c-10.72-.12-21.44-.37-32.15-.77l-.66-.7,32.81,1.46Z"/>
  <path class="cls-41" d="M199.16,63.21l-31.44.23c-.76,0-1.43-1-1.36-1.69l32.81,1.46Z"/>
  <path class="cls-29" d="M190.9,94.3l-8.58.31c-.39-.18-.52-.52-.53-.68l8.58-.32c.39.24.51.57.53.7Z"/>
</svg>