<?xml version="1.0" encoding="UTF-8"?>
<svg id="Camada_1" data-name="Camada 1" xmlns="http://www.w3.org/2000/svg" xmlns:xlink="http://www.w3.org/1999/xlink" viewBox="0 0 700 182.24">
  <defs>
    <style>
      .cls-1 {
        fill: url(#Gradiente_sem_nome_8);
      }
    </style>
    <linearGradient id="Gradiente_sem_nome_8" data-name="Gradiente sem nome 8" x1="350" y1="130.92" x2="350" y2="-2.87" gradientUnits="userSpaceOnUse">
      <stop offset="0" stop-color="#228ecc"/>
      <stop offset="1" stop-color="#1562a1"/>
    </linearGradient>
  </defs>
  <path class="cls-1" d="M500.88,41.61c-11.11-.24-21.6,2-28.89,10.69l-.49-8.72-9.92.32-.04,137.77c3.65.81,6.48.69,9.91.1l.22-53.17c6.69,8,15.25,10.58,25,11.24,19.09,1.27,34.24-10.69,37.68-29.66,3.11-14.1,2.5-29.03-.99-43.01-3.93-15.77-16.29-25.19-32.48-25.55ZM525.03,110.13c-3.44,14.12-14.73,21.03-28.42,19.83-10.93-.97-23.88-7.16-23.94-19.06l-.15-38.6c-.06-13.25,13.35-20.4,25.44-20.96,14.1-.64,24.44,7.08,27.41,21.11,2.52,11.91,2.73,25.1-.34,37.68ZM621.38,64.35c-4.77-16.05-20.88-24.51-37.15-21.59-13.84,1.15-25.48,9.42-28.95,22.54l8.75,2.24c6.14-17.01,29.16-20.01,42.86-9.44,5.44,4.2,8.56,16.96,3.86,22.04-8.48,9.16-36.97-4.14-53.25,14.06-8.68,9.72-8.82,27.91,1.34,36.79,15.21,13.29,38.63,11.19,54.18-.92l4.03,9.65,9.09-2.01-4.45-9.36-.31-63.99ZM568.84,126.76c-5.95-3.08-8.17-8.49-8.24-14.75-.08-7.72,3.26-13.73,10.55-16.71,12.84-5.23,28.05.27,42-4.77v28c-11.49,12.69-29.73,15.8-44.31,8.23ZM299.38,41.57c-17,.98-31.43,9.92-36.7,25.56-1.3,3.85-2.46,7.85-3.11,12.1-.71,4.73-.98,9.65-.76,14.55.45,9.7,1.57,19.9,6.58,28.14,5.41,8.94,13.71,15.28,24.44,17.88,18.57,4.49,38.27-.04,50.68-15.24l-16.58-12.12c-9.23,10.51-24.04,11.8-35.64,5.33-6.44-3.58-8.38-11.52-8.58-18.48-.01-.39-.03-.77-.03-1.15l61.59-.03c.74-9.16.55-17.6-.73-25.62-3.12-19.56-21.02-32.08-41.18-30.94ZM319.09,78.45l-39.33-.55c1.78-5.75,5.02-11.77,10.05-14.59,5.9-3.32,13.7-3.89,20.22-1.44,6.11,2.29,9.74,6.46,10.24,12.41.15.73.87,4.2-1.18,4.17ZM89.3.37l-.36,20.97c-11.12-2.9-18.26,2.42-20.68,11.61l.25,7.64,17.7.08-.53,18.11-17.13.1-.32,79.6-19.17.35c-.9-4.45-.49-7.99-.45-11.53l.24-27.83c.07-11.54-2.07-23.3.41-34.49-.35-1.3-.63-4.91-1.97-5.79l-26.66-.41.03,79.8-20.61.27v-24.14L0,90.9l.04-23.66v-26.68s49.15.08,49.15.08c-.62-10.59,1.69-23.55,9.99-31.68C67.2,1.09,79.49-.27,89.3.37ZM242.35,79.82l-.76,23.93.24,30.92c.13,1.3.64,2.46.11,4.27l-19.31-.08c-.56-3.01.06-5.33.32-7.81v-27.27s-.77-15.56-.77-15.56c-.08-8.37-1.61-15.39-3.34-22.6l-7.19-4.37c-5.68-1.64-12.38-1.82-17.48-.46-5.9,1.57-9.21,5.25-10.9,10.59l-.43,67.47h-20.57s-.01-22.61-.01-22.61l.13-19.52-.06-22.53.03-15.41v-21s-.06-37.71-.06-37.71l19.58-.06c.45-.13,1.46.25,1.46,1.39l-.13,41.1c15.83-6.93,33.01-5.14,46.4,4.81,2.42,1.81,3.01,4.03,4.42,5.58,6.21,6.9,8.4,16.85,8.33,26.92ZM440.5,98.4l-.25,5.32.7,34.49c-2.42.69-3.22.48-4.93.5l-15.06.07.17-11.59.03-30.53-1.04-21.34c-.27-6.55-3.54-11.85-8.72-14.79-11.15-3.16-23.86-2.06-27.75,6.7l-1.93,4.34-.08,66.99-20.61.34v-49.18l-.03-22.39-.03-25h18.15c1.39-.01,2.9,1.44,4.09,2.18,17.8-8.21,43.87-3.58,52.46,13.12,4.04,7.86,5.67,16.61,5.48,26.4l-.66,14.16v.2ZM130.06,40.92l14.2-.2-.03,18.15-13.47.08c-.39,8.52-.94,16.04-.43,23.65.69,10.49.46,21.11-.22,31.59l-.1,1.55c1.9,3.85,6.39,4.13,11.64,2.81.63,7.35.45,13.04-.03,20.81-6.66.94-14.48,1.33-20.89-2.84-5.55-3.61-9.6-11.15-9.68-18.27l-.48-59.29-11.49-.18v-18.19s11.78.06,11.78.06l-.35-26.6,16.89-.08c1.44-.01,2.49.77,3.2,1.61l-.55,25.34ZM19.65,33.76H0S.03,14.35.03,14.35h19.52s.1,19.41.1,19.41ZM699.57,58.87l-4.39,13.35-3.9,10.05c-1.4,3.61-1.55,6.83-5.76,7.79-4,.91-7.15,5-13.68,3.68,2.95-4.03,4.25-8.45,6.21-13.1l4.58-10.83c1.37-3.26,1.61-8.19,4.37-10.72l.63-2.95-46.44-.07,1.15,4.1c3.02,4.23,4.11,10.14,5.95,14.94l8.68,22.7,14.51,39.26-6.56,18.51c-2.53,14.79-14.86,26.26-30.64,25.45-1.58-4.84-3.6-8.41-3.47-13.03,7.16,1.16,15.5.43,17.97-5.96l9.25-22.05-7.36-19.7-5.58-15.41-5.37-13.75-3.12-8.59-1.53-5.23c-2.06-7.01-13.56-27.75,1.44-32.77,2.01-.67,3.36-1.62,5.83-1.6l43.12.43c4.03.04,7.12,3.16,9.75,5.36,2.97,2.48,5.96,5.36,4.39,10.13Z"/>
</svg>