<?xml version="1.0" encoding="UTF-8"?>
<svg id="Camada_1" data-name="Camada 1" xmlns="http://www.w3.org/2000/svg" viewBox="0 0 468.5 123">
  <defs>
    <style>
      .cls-1 {
        fill: #fff;
      }
    </style>
  </defs>
  <path class="cls-1" d="M466.99,33.99l-37.29,88.62-25.03-.07,8.61-20.31c.83-1.97,1.51-6.11.82-7.97l-14.81-39.43-21.71-.1v44.72l-25.6.05-.16-44.91-13.61.24-.2-20.79,13.94-.19c-.2-9.19,1.39-18.68,8.15-25.18,11.59-11.13,34.6-10.9,47.09-.02,5.03,4.38,7.76,10.77,9.33,17.33l-24.51-.06c-1.14-4.05-3.04-7.79-5.78-8.97-3.89-1.68-8.48-1.54-11.08,1.72-2.13,2.65-2.59,8.42-.11,11.22,2.24,2.53,7.37,3.92,10.86,3.94l32.79.18,7.9,35.59c.42.49,1.9,1.8,2.28,1.36l1.7-2.01,7.23-35.01,29.19.04Z"/>
  <path class="cls-1" d="M277.07,33.86l-.93,4.07c-17.43-8.78-36.49-6.4-44.27,11.43-4,9.15-4.61,19.34-1.82,29.15,3.53,12.4,15.58,19.53,28.46,18.13,6.66-.73,12.37-3.93,19.09-6.55-1.66,7.7-9.02,11.52-16.23,11.58l-28.56.23v20.69s35.53-.39,35.53-.39c17.35-.19,33.05-14.11,33.21-31.85l.5-56.31-24.98-.18ZM269.52,78.46c-5.91,2.05-12.08.54-15.15-3.2-3.78-4.58-4.08-10.71-1.43-15.35,2.82-4.96,8.36-6.89,14.41-5.9,5.52.88,9.29,5.72,9.97,10.53.84,5.93-1.57,11.78-7.8,13.92Z"/>
  <path class="cls-1" d="M223.51,99.6l-.02-90.19-25.36.15-.09,28.94c-7.95-4.55-14.85-6.38-23.18-5.39-10.3,1.24-18.2,8.03-22.03,17.69-7.21,18.14-1.51,43,19.15,48.73,9.67,2.68,17.23-.93,25.78-6.08l-.85,6.28,26.61-.14ZM181.35,78.76c-7.02-2.16-9.75-9.77-7.96-15.88,1.91-6.54,8.35-10.21,15.56-8.92,7.5,1.34,11.32,8.75,9.63,16.08-1.59,6.96-8.98,11.25-17.23,8.72Z"/>
  <path class="cls-1" d="M67.75,99.69l-50.52-.26c-9.57-.05-16.32-8.58-15.67-17.67l.07-72.34,42.43.02-27.94,68.46-.1,2.41c-.03.7,2,.79,2.79.69l48.77-29.47.17,48.16Z"/>
  <path class="cls-1" d="M135.77,42.67c-14.45-14.58-46.19-13.54-57.53,6-7.67,13.23-6.72,30.86,4.74,41.69,13.57,12.83,35.95,13.82,50.98,1.54,15.27-12.46,14.9-36.02,1.81-49.24ZM119.8,74.67c-2.9,3.97-8.66,5.98-14.87,4.1-5.89-1.79-8.72-7.07-8.66-12.37.07-5.42,3.63-10.79,9.27-12.17,6.04-1.47,11.57.23,14.84,5.06,2.99,4.41,3.01,10.48-.59,15.38Z"/>
  <polygon class="cls-1" points="332.76 99.56 307.44 99.54 307.4 33.98 332.74 33.92 332.76 99.56"/>
  <path class="cls-1" d="M323.06,30.32c-6.48,1.04-13.75-1.33-16.19-7.79-1.63-4.33-.28-9.5,2.68-12.31,3.23-3.08,7.75-4.44,12.4-4.01,6.9.65,11.54,5.37,12.01,11.61.48,6.24-4.29,11.44-10.9,12.5Z"/>
</svg>