<?xml version="1.0" encoding="UTF-8"?>
<svg id="Camada_1" data-name="Camada 1" xmlns="http://www.w3.org/2000/svg" viewBox="0 0 1600 413.5">
  <defs>
    <style>
      .cls-1 {
        fill: #161616;
      }
    </style>
  </defs>
  <path class="cls-1" d="M312.65,391.79l-64.17-131.63c14.04-7.71,25.61-18.01,34.49-30.69,16.84-24.05,25.39-53.28,25.39-86.87,0-22.31-3.67-42.91-10.92-61.23-7.44-18.78-19.19-34.59-34.93-46.99-15.68-12.35-35.86-20.52-59.97-24.27-5.29-.94-11.3-1.56-17.86-1.84-6.33-.27-11.46-.4-15.26-.4H0v397.73h90.72v-103.24l-55.2-25.03h119.34l59.54,122.85,2.62,5.42h102.36l-6.74-13.82ZM214.41,161.85c-1.66,6.29-4.6,11.85-8.95,17.02-4.01,4.74-9.75,8.08-17.53,10.2l-.05.02h-.06c-3.06.88-6.5,1.48-10.22,1.78-4.09.33-7.89.49-11.32.49h-75.55v-97.48h75.55c3.39,0,7.2.17,11.32.5,3.73.3,7.17.89,10.22,1.76l.06.02.05.02c7.68,2.09,13.57,5.52,17.53,10.2,4.36,5.16,7.29,10.73,8.96,17.02,1.79,6.79,2.7,13.27,2.7,19.23s-.91,12.44-2.71,19.24Z"/>
  <polygon class="cls-1" points="448.19 36.63 448.19 405.62 357.47 405.62 357.47 7.88 448.19 36.63"/>
  <path class="cls-1" d="M849.73,99.15c-15.57-31.14-38.12-55.72-67-73.07C753.92,8.78,719.31,0,679.88,0s-74.04,8.78-102.86,26.08c-28.89,17.35-51.42,41.93-67,73.07-15.41,30.82-23.23,67.02-23.23,107.6s7.82,76.78,23.23,107.6c15.56,31.14,38.11,55.72,67,73.07,28.81,17.3,63.42,26.07,102.86,26.07s74.05-8.77,102.86-26.08c28.88-17.34,51.42-41.92,67-73.07,15.41-30.82,23.23-67.02,23.23-107.59s-7.82-76.77-23.23-107.6ZM766.78,272c-7.21,17.73-18.08,31.56-32.33,41.11-13.76,9.22-31.35,13.9-52.29,13.9-.71,0-1.42,0-2.14-.02-22.01-.32-40.42-5.35-54.72-14.93-14.28-9.57-25.16-23.24-32.35-40.64-7.45-18.02-11.23-39.77-11.23-64.67s3.78-46.87,11.25-65.26c7.2-17.72,18.07-31.55,32.33-41.11,13.76-9.22,31.36-13.89,52.32-13.89.7,0,1.41,0,2.12.02,22,.32,40.4,5.35,54.71,14.93,14.27,9.57,25.15,23.24,32.35,40.64,7.45,18.03,11.23,39.78,11.23,64.67s-3.79,46.87-11.25,65.25Z"/>
  <polygon class="cls-1" points="1249.92 405.62 1133.92 405.62 1131.05 402.34 997.02 249.16 997.02 405.62 906.3 405.62 906.3 7.88 997.02 36.64 997.02 165.28 1124.03 11.38 1126.92 7.88 1239.47 7.88 1226.05 23.72 1073.17 204.01 1235.93 389.67 1249.92 405.62"/>
  <path class="cls-1" d="M1576.77,99.15c-15.57-31.14-38.12-55.72-67-73.07C1480.96,8.78,1446.35,0,1406.92,0s-74.04,8.78-102.86,26.08c-28.88,17.35-51.42,41.93-67,73.07-15.41,30.82-23.23,67.02-23.23,107.6s7.82,76.78,23.23,107.6c15.57,31.14,38.12,55.72,67,73.07,28.81,17.3,63.42,26.07,102.86,26.07s74.05-8.77,102.86-26.08c28.88-17.34,51.42-41.92,67-73.07,15.41-30.82,23.23-67.02,23.23-107.59s-7.82-76.77-23.23-107.6ZM1493.82,272c-7.2,17.73-18.08,31.56-32.32,41.11-13.77,9.22-31.36,13.9-52.3,13.9-.71,0-1.42,0-2.14-.02-22.01-.32-40.42-5.35-54.72-14.93-14.27-9.57-25.15-23.24-32.35-40.64-7.45-18.02-11.23-39.77-11.23-64.67s3.79-46.87,11.25-65.26c7.2-17.72,18.08-31.55,32.33-41.11,13.76-9.22,31.36-13.89,52.32-13.89.71,0,1.41,0,2.12.02,22.01.32,40.41,5.35,54.72,14.93,14.26,9.57,25.14,23.24,32.34,40.64,7.45,18.03,11.24,39.78,11.24,64.67s-3.79,46.87-11.26,65.25Z"/>
</svg>