<?xml version="1.0" encoding="UTF-8"?>
<svg id="Camada_1" data-name="Camada 1" xmlns="http://www.w3.org/2000/svg" viewBox="0 0 1398.31 265.93">
  <defs>
    <style>
      .cls-1 {
        fill: #0c0c0c;
      }

      .cls-2 {
        fill: #028dc4;
      }

      .cls-3 {
        fill: #191919;
      }
    </style>
  </defs>
  <g>
    <path class="cls-3" d="M201.97,251.97l-41.45-84.65c9.07-4.96,16.54-11.58,22.28-19.74,10.88-15.47,16.4-34.27,16.4-55.87,0-14.35-2.37-27.6-7.05-39.38-4.81-12.08-12.4-22.25-22.56-30.22-10.13-7.94-23.17-13.2-38.74-15.61-3.42-.6-7.3-1-11.54-1.18-4.09-.17-7.4-.26-9.86-.26H0v255.79h58.6v-66.4l-35.66-16.1h77.09l38.46,79.01,1.69,3.49h66.12l-4.35-8.89h.02ZM138.51,104.09c-1.07,4.05-2.97,7.62-5.78,10.95-2.59,3.05-6.3,5.2-11.32,6.56h-.07c-1.98.58-4.2.96-6.6,1.15-2.64.21-5.1.32-7.31.32h-48.81v-62.69h48.81c2.19,0,4.65.11,7.31.32,2.41.19,4.63.57,6.6,1.13h.04l.03.03c4.96,1.34,8.77,3.55,11.32,6.56,2.82,3.32,4.71,6.9,5.79,10.95,1.16,4.37,1.74,8.53,1.74,12.37s-.59,8-1.75,12.37h0v-.02Z"/>
    <polygon class="cls-3" points="289.53 23.56 289.53 260.86 230.92 260.86 230.92 5.07 289.53 23.56"/>
    <path class="cls-3" d="M548.92,63.77c-10.06-20.03-24.63-35.83-43.28-46.99C487.03,5.65,464.67,0,439.2,0s-47.83,5.65-66.45,16.77c-18.66,11.16-33.22,26.97-43.28,46.99-9.95,19.82-15.01,43.1-15.01,69.2s5.05,49.38,15.01,69.2c10.05,20.03,24.62,35.83,43.28,46.99,18.61,11.13,40.97,16.77,66.45,16.77s47.84-5.64,66.45-16.77c18.66-11.15,33.22-26.96,43.28-46.99,9.95-19.82,15.01-43.1,15.01-69.19s-5.05-49.37-15.01-69.2h-.01ZM495.34,174.93c-4.66,11.4-11.68,20.3-20.89,26.44-8.89,5.93-20.25,8.94-33.78,8.94-.46,0-.92,0-1.38,0-14.22-.21-26.11-3.44-35.35-9.6-9.22-6.15-16.25-14.95-20.9-26.14-4.81-11.59-7.25-25.58-7.25-41.59s2.44-30.14,7.27-41.97c4.65-11.4,11.67-20.29,20.89-26.44,8.89-5.93,20.26-8.93,33.8-8.93.45,0,.91,0,1.37,0,14.21.21,26.1,3.44,35.34,9.6,9.22,6.15,16.25,14.95,20.9,26.14,4.81,11.6,7.25,25.58,7.25,41.59s-2.45,30.14-7.27,41.96h0Z"/>
    <polygon class="cls-3" points="807.44 260.86 732.51 260.86 730.65 258.76 644.07 160.24 644.07 260.86 585.47 260.86 585.47 5.07 644.07 23.56 644.07 106.3 726.12 7.32 727.99 5.07 800.69 5.07 792.02 15.25 693.26 131.2 798.41 250.61 807.44 260.86"/>
    <path class="cls-3" d="M1018.59,63.77c-10.06-20.03-24.63-35.83-43.28-46.99C956.7,5.65,934.34,0,908.87,0s-47.83,5.65-66.45,16.77c-18.66,11.16-33.22,26.97-43.28,46.99-9.95,19.82-15.01,43.1-15.01,69.2s5.05,49.38,15.01,69.2c10.06,20.03,24.63,35.83,43.28,46.99,18.61,11.13,40.97,16.77,66.45,16.77s47.84-5.64,66.45-16.77c18.66-11.15,33.22-26.96,43.28-46.99,9.95-19.82,15.01-43.1,15.01-69.19s-5.05-49.37-15.01-69.2h-.01ZM965,174.93c-4.65,11.4-11.68,20.3-20.88,26.44-8.9,5.93-20.26,8.94-33.79,8.94-.46,0-.92,0-1.38,0-14.22-.21-26.11-3.44-35.35-9.6-9.22-6.15-16.25-14.95-20.9-26.14-4.81-11.59-7.25-25.58-7.25-41.59s2.45-30.14,7.27-41.97c4.65-11.4,11.68-20.29,20.89-26.44,8.89-5.93,20.26-8.93,33.8-8.93.46,0,.91,0,1.37,0,14.22.21,26.1,3.44,35.35,9.6,9.21,6.15,16.24,14.95,20.89,26.14,4.81,11.6,7.26,25.58,7.26,41.59s-2.45,30.14-7.27,41.96h-.01Z"/>
  </g>
  <g>
    <rect class="cls-2" x="1092.21" y="119.49" width="306.1" height="146.43" rx="37.48" ry="37.48"/>
    <g>
      <path class="cls-1" d="M1205.04,157.59c12.81,0,23.76,3.88,23.76,14.51v15.89c0,10.63-11.05,12.94-23.76,14.51l-30.07,3.79c-4.09.55-4.83,4.34-4.83,7.48h58.1v13.12h-75v-13.12c0-13.86,11.05-19.04,23.76-20.61l30.07-3.79c4.73-.55,4.83-1.85,4.83-4.62v-6.56c0-4.71,0-7.49-4.83-7.49h-32.67c-4.27,0-4.27,2.77-4.27,7.49v3.23h-16.89v-9.33c0-9.79,11.88-14.51,22.83-14.51h28.97Z"/>
      <path class="cls-1" d="M1253.33,219.6c0,4.53-3.71,8.22-8.26,8.22s-8.17-3.7-8.17-8.22,3.71-8.13,8.17-8.13,8.26,3.7,8.26,8.13Z"/>
      <path class="cls-1" d="M1337.28,172.1v40.29c0,9.79-11.88,14.51-22.83,14.51h-28.96c-12.81,0-23.76-3.88-23.76-14.51v-40.29c0-10.63,10.95-14.51,23.76-14.51h28.96c10.95,0,22.83,4.71,22.83,14.51ZM1310.39,213.78l-31.77-34.37v26.88c0,4.71,0,7.48,4.83,7.48h26.95,0ZM1320.38,178.2c0-4.71,0-7.49-4.27-7.49h-27.59l31.86,34.46v-26.98h0Z"/>
    </g>
  </g>
</svg>