<?xml version="1.0" encoding="UTF-8"?>
<svg id="Camada_1" data-name="Camada 1" xmlns="http://www.w3.org/2000/svg" viewBox="0 0 590 245.77">
  <defs>
    <style>
      .cls-1 {
        fill: #6772e4;
      }
    </style>
  </defs>
  <path class="cls-1" d="M435.98,62.84c-18.89-15.19-45.11-14.68-62.73,1.69l-2.09-9.89-36.18-.07v191.2l40.97-8.59.43-46c9.93,7.26,19.36,10.38,30.29,9.93,19.07-.47,35.26-11.34,44.12-28.15,6.01-11.09,8.84-23.1,9.89-35.78,2.25-27.24-3.13-56.98-24.71-74.34ZM403.62,163.06c-9.69,4.06-20.37,1.24-27.37-5.73l-.24-61.08c6.94-7.42,18.15-10.43,27.61-6.11,23.42,10.67,22.3,63.6,0,72.93Z"/>
  <path class="cls-1" d="M530.33,165.31c-11.97-2.17-19.88-11.66-20.41-23.53l80.08-.02-.21-28.21c-1.42-12.33-4.6-24.1-10.86-34.66-9.21-16.04-24.65-25.6-43.03-26.89-24.97-1.77-47.28,10.77-58.34,33.82-11.46,23.89-12.13,52.8-2.32,77.63,16.59,41.96,69.11,45.72,106.57,27.38l-.22-33.11c-16.84,7.67-34.12,10.71-51.26,7.61ZM516.87,91.07c4.82-4.58,11.11-6.55,17.65-5.39,10.6,1.88,17.29,12.25,17.13,25.5l-42.16.23c-.14-7.51,1.84-15.09,7.37-20.34Z"/>
  <path class="cls-1" d="M104.3,154.71c-.04,15.71-7.17,29.62-20.86,37.63-22.9,13.39-56.16,10.26-81.45-.31l-.05-39.18c16.45,8.05,35.71,15.27,52.89,11.95,3.93-.84,6.65-3.67,7.27-6.72C66.69,135.94-1.2,144.8.02,97.01c.72-28.22,22.34-43.36,49.75-44.98,16.02-.75,31.62,1.37,46.5,7.34l-.2,38.51c-15.1-7.36-30.29-11.35-46.03-10.08-4.05.85-7.25,2.81-8.1,6-5.53,21.09,62.45,10.91,62.36,60.9Z"/>
  <path class="cls-1" d="M183.62,89.61l-31.12.02.02,60.06c.32,8.11,5,14.05,12.65,15.04,6.1.84,11.83-.13,18.36-2.4l-.02,33.66c-11.57,4.69-23.99,6.3-36.36,4.47-19.38-2.85-33.29-18.25-34.87-37.92l.06-135.02,40.08-8.47.04,35.45,31.22.1-.05,35.01Z"/>
  <path class="cls-1" d="M268.71,92.29c-11.72-3.03-23.16-1.06-31.12,8.25l-.11,97.62-40.94.12-.03-143.6,35.63-.06c.87,3.93.79,7.21,2.86,11.11,3.4-5.76,8.12-9.59,14.43-11.59,6.22-1.73,12.62-1.62,19.2.34l.08,37.8Z"/>
  <polygon class="cls-1" points="319.76 198.15 278.56 198.25 278.55 54.6 319.75 54.58 319.76 198.15"/>
  <polygon class="cls-1" points="319.83 33.36 278.53 42.28 278.58 8.7 319.78 0 319.83 33.36"/>
</svg>