<?xml version="1.0" encoding="UTF-8"?>
<svg id="Camada_1" data-name="Camada 1" xmlns="http://www.w3.org/2000/svg" viewBox="0 0 632.28 410">
  <defs>
    <style>
      .cls-1 {
        fill: #0146fd;
      }
    </style>
  </defs>
  <polygon class="cls-1" points="279.66 365.52 235.72 298.67 208.18 298.79 208.33 408.81 235.29 408.7 236.45 343.46 280.22 408.73 307.14 408.51 307.16 298.43 280.3 298.28 279.66 365.52"/>
  <path class="cls-1" d="M377.82,298.99l-51.32-.65.06,110.49,50.44-.69c29.24-2.75,49.36-25.11,49.06-55.45-.3-29.24-19.82-53.36-48.24-53.71ZM388.79,377.81c-9.68,9.08-23.65,8.35-35.12,7.51l-.26-63.6c11.6-.84,24.4-2.19,34.38,6.15,13.86,11.6,15.13,36.73.99,49.94Z"/>
  <path class="cls-1" d="M506.08,366.77c-.65,11.55-8.78,17.84-18.91,18.16-9.04.3-19.02-4.6-19.15-15.51l-.82-70.96h-26.53l-.28,65.99c-.11,28.12,20.61,46.63,48.07,45.51,24.74-1.01,44.45-17.49,44.48-43.31l.09-68.17-26.92.02-.02,68.27Z"/>
  <path class="cls-1" d="M613.65,348.8l-27.93-10.41c-4.2-1.57-6.93-4.56-7.64-7.38-1.05-4.28-.19-8.46,3.53-11.06,3.74-2.58,10.05-1.7,14.03-.13,2.84,1.14,4.13,6.89,7.17,9.12l27.69.6c.26-12.24-7.19-22.79-18.61-28.21-13.17-6.22-28.27-6.18-41.98-1.48-14.31,4.91-21.32,17.17-20.96,31.29.34,13.68,9.98,23.37,24.19,28.38l23.65,8.35c4.88,1.72,7.4,6.2,7.14,10.44-.28,4.56-3.64,8.15-8.67,9.42-8.65,2.15-16.42-2.28-17.67-11.79l-28.7-.22c-.11,15.69,10.54,27.61,25.63,31.8,11.34,3.16,23.54,3.03,35.05.67,13.3-2.73,20.81-13.53,22.44-27.52,1.79-15.36-5.1-26.92-18.35-31.87Z"/>
  <polygon class="cls-1" points="56.03 379.76 28.51 298.04 0 298.17 39.1 408.75 73.2 408.38 112.02 298.49 83.08 299.27 56.03 379.76"/>
  <polygon class="cls-1" points="190.88 298.43 123.16 298.34 123.16 408.77 190.84 408.77 190.86 387.08 150.4 386.93 150.4 363 186.27 362.64 185.99 341.96 150.47 341.85 150.12 320.23 190.81 319.62 190.88 298.43"/>
  <path class="cls-1" d="M352.06,209.55l-41.21.09-.06,30.36,48.65-.22c25.24-.11,46-21.47,46.03-46.99l.17-140.57h-31.97c.24,5.51,1.53,9.32-2.47,14.91-20.72-23.99-55.11-23.78-76.43-.45-21.47,23.48-23.48,60.1-5.94,86.82,15.1,22.98,44.02,32.13,68.4,20.48l15.51-11.06.67,25.93c.32,12.09-9.62,20.68-21.35,20.7ZM343.07,149c-18.76.67-32.38-14.24-33.22-33.5-.84-19.52,12.46-35.52,31.18-36.06,18.53-.56,33.39,14.2,33.03,35.05-.34,19.62-13.79,33.91-30.98,34.51Z"/>
  <path class="cls-1" d="M579.03,165.46c2.22,4.78,1.46,7.77,1.85,12.72l31.74-.22-.02-176.05-31.91-.11-.73,67.69-16.44-11.94c-25.2-12.61-54.63-3.14-69.07,21.28-13.71,23.2-13.94,52.46.13,75.46,15.06,24.66,45.59,35.07,71.74,21.26l12.72-10.09ZM516.6,115.65c.65-18.78,13.53-32.68,31.03-33.46,18.66-.82,33.42,13.58,33.48,34.49.06,20.87-14.93,35.65-33.46,35.03-18.7-.65-31.74-16.61-31.05-36.06Z"/>
  <path class="cls-1" d="M253.32,145.23l-28.73-5.94c-6.5,10.39-17.06,14.61-30.04,14.12-17.49-.69-29.11-12.85-28.79-29.5l92.07-.28c1.2-18.48-2.35-36.73-14.85-51.43-17.6-20.68-47.51-25.67-72.47-15.41-23.71,9.77-38,33.87-37.85,60.96.24,41.46,35.98,69.65,76.64,62.74,19.95-3.38,37.12-14.61,44-35.27ZM194.88,77.6c14.2-.28,28.04,7.01,31.37,25.24l-60.68.58c2.78-16.59,15.41-25.58,29.31-25.82Z"/>
  <path class="cls-1" d="M43.16,167.05c23.3,18.66,56.83,17.92,80.65,1.66-4.17-9.3-6.52-15.82-11.55-22.18-15.84,8.59-36.34,9.27-49.51-4.73-13.47-14.33-12.09-39.29,1.59-51.81,13.23-12.11,31.74-11.15,48.11-3.7,4.8-8.39,7.92-16.78,10.48-26.14-23.58-10.52-49.98-11.62-71.72,1.16-18.76,11.04-28.79,30.23-30.21,49.32-1.66,21.8,4.95,42.67,22.16,56.44Z"/>
  <path class="cls-1" d="M463.41,176.09l-.3-118.43-31.69.62.24,118.88c11.79.47,21.93,1.98,31.76-1.08Z"/>
  <path class="cls-1" d="M450.31,37.35c12.09-1.44,18.1-11.53,16.55-21.73-1.4-9.34-10.5-16.65-21.37-15.49-11.58,1.23-18.23,10.89-16.76,21.54,1.27,9.25,9.81,17.08,21.58,15.69Z"/>
</svg>