<?xml version="1.0" encoding="UTF-8"?>
<svg id="Camada_1" data-name="Camada 1" xmlns="http://www.w3.org/2000/svg" xmlns:xlink="http://www.w3.org/1999/xlink" viewBox="0 0 500 500">
  <defs>
    <style>
      .cls-1 {
        fill: #fff;
      }

      .cls-2 {
        fill: #f2f2f2;
      }

      .cls-3 {
        fill: #028dc4;
      }

      .cls-4 {
        fill: url(#Gradiente_sem_nome_4);
      }
    </style>
    <radialGradient id="Gradiente_sem_nome_4" data-name="Gradiente sem nome 4" cx="182.98" cy="325.53" fx="182.98" fy="325.53" r=".32" gradientTransform="translate(-197370.6616 351715.5) scale(1080 -1080)" gradientUnits="userSpaceOnUse">
      <stop offset="0" stop-color="#0e2d52"/>
      <stop offset=".55" stop-color="#071628"/>
      <stop offset="1" stop-color="#020a12"/>
    </radialGradient>
  </defs>
  <rect class="cls-4" width="500" height="500" rx="96.85" ry="96.85"/>
  <g>
    <path class="cls-2" d="M333.68,290.47l-34.3-70.04c-.45-.92-.1-2.02.79-2.54,6.97-4.09,12.76-9.39,17.28-15.81,9.21-13.1,13.89-29.02,13.89-47.31,0-12.15-2.01-23.37-5.97-33.35-4.07-10.23-10.5-18.84-19.1-25.59-8.58-6.72-19.62-11.18-32.8-13.22-2.9-.51-6.18-.85-9.77-1-3.46-.14-6.27-.22-8.35-.22h-90.74c-1.07,0-1.94.87-1.94,1.94v212.72c0,1.07.87,1.94,1.94,1.94h45.74c1.07,0,1.94-.87,1.94-1.94v-53.03c0-.76-.45-1.46-1.14-1.77l-20.83-9.41c-1.91-.86-1.29-3.71.8-3.71h55.04c.74,0,1.42.42,1.75,1.09l32.04,65.81.9,1.86c.32.67,1,1.1,1.75,1.1h51.66c1.44,0,2.38-1.51,1.74-2.8l-2.32-4.73h.02ZM279.94,165.25c-.91,3.43-2.51,6.45-4.89,9.27-2.19,2.58-5.33,4.4-9.59,5.55h-.06c-1.68.49-3.56.81-5.59.97-2.24.18-4.32.27-6.19.27h-39.39c-1.07,0-1.94-.87-1.94-1.94v-49.2c0-1.07.87-1.94,1.94-1.94h39.39c1.85,0,3.94.09,6.19.27,2.04.16,3.92.48,5.59.96h.03l.03.03c4.2,1.13,7.43,3.01,9.59,5.55,2.39,2.81,3.99,5.84,4.9,9.27.98,3.7,1.47,7.22,1.47,10.47s-.5,6.77-1.48,10.47h0v-.02Z"/>
    <rect class="cls-3" x="157.98" y="330.57" width="184.04" height="88.04" rx="39.42" ry="39.42"/>
    <path class="cls-1" d="M225.82,353.48c7.7,0,14.29,2.33,14.29,8.72v9.55c0,6.39-6.64,7.78-14.29,8.72l-18.08,2.28c-1.29.17-2.03.89-2.44,1.8-.57,1.27.41,2.7,1.79,2.7h30.73c1.07,0,1.94.87,1.94,1.94v4c0,1.07-.87,1.94-1.94,1.94h-41.21c-1.07,0-1.94-.87-1.94-1.94v-5.95c0-8.33,6.64-11.45,14.29-12.39l18.08-2.28c2.84-.33,2.9-1.11,2.9-2.78v-3.94c0-2.83,0-4.5-2.9-4.5h-19.64c-2.57,0-2.57,1.67-2.57,4.5h0c0,1.07-.87,1.94-1.94,1.94h-6.27c-1.07,0-1.94-.87-1.94-1.94v-3.67c0-5.89,7.14-8.72,13.73-8.72h17.42Z"/>
    <path class="cls-1" d="M254.85,390.76c0,2.72-2.23,4.94-4.97,4.94s-4.91-2.22-4.91-4.94,2.23-4.89,4.91-4.89,4.97,2.22,4.97,4.89Z"/>
    <path class="cls-1" d="M305.32,362.2v24.22c0,5.89-7.14,8.72-13.73,8.72h-17.41c-7.7,0-14.29-2.33-14.29-8.72v-24.22c0-6.39,6.58-8.72,14.29-8.72h17.41c6.58,0,13.73,2.83,13.73,8.72ZM289.16,387.26l-15.73-17.02c-1.2-1.3-3.37-.45-3.37,1.32v11.2c0,2.83,0,4.5,2.9,4.5h16.2,0ZM295.16,365.87c0-2.83,0-4.5-2.57-4.5h-12.15c-1.69,0-2.58,2.02-1.43,3.26l12.77,13.82c1.2,1.3,3.37.45,3.37-1.32v-11.26h0Z"/>
  </g>
</svg>